<?xml version="1.0" standalone="no"?>
<!DOCTYPE svg PUBLIC "-//W3C//DTD SVG 20010904//EN"
 "http://www.w3.org/TR/2001/REC-SVG-20010904/DTD/svg10.dtd">
<svg version="1.0" xmlns="http://www.w3.org/2000/svg"
 width="1024.000000pt" height="1024.000000pt" viewBox="0 0 1024.000000 1024.000000"
 preserveAspectRatio="xMidYMid meet">
<metadata>
Created by potrace 1.11, written by Peter Selinger 2001-2013
</metadata>
<g transform="translate(0.000000,1024.000000) scale(0.100000,-0.100000)"
fill="#000000" stroke="none">
<path d="M2090 9440 c-1 -19 -2 -547 -3 -1172 l-2 -1138 675 -2 675 -3 0
-2005 0 -2005 -673 -3 c-436 -1 -672 -6 -672 -12 -4 -89 0 -2323 4 -2327 8 -8
6044 -8 6052 0 4 4 9 2193 5 2314 l-1 23 -672 2 -673 3 -1 1995 c0 1097 2
2001 4 2008 3 9 147 12 673 12 630 0 669 1 670 18 1 18 0 2300 -1 2317 0 7
-1017 10 -3030 10 l-3030 0 0 -35z"/>
</g>
</svg>
