<svg xmlns="http://www.w3.org/2000/svg" viewBox="0 0 784.88 705"><defs><style>.cls-1{fill:#e84a27;}.cls-2{fill:#111;}.cls-3,.cls-7{fill:#fff;}.cls-4{fill:#13294b;}.cls-5{fill:#fbf4cb;}.cls-6{fill:#03f;}.cls-7{stroke:#e84a27;stroke-miterlimit:10;stroke-width:12.58px;}</style></defs><g id="Layer_2" data-name="Layer 2"><g id="Layer_1-2" data-name="Layer 1"><g id="Layer_2-2" data-name="Layer 2"><g id="Layer_1-2-2" data-name="Layer 1-2"><path class="cls-1" d="M283.32,414.35c-47.09-1.82-170.19,6.33-188.38,1.79S53.11,394.52,76.66,388.4c34.88-9.11,135.08-35.47,170.43-28.4C303.64,371.35,304.6,415.19,283.32,414.35Z"/><path class="cls-1" d="M199.25,659.81c8.34-1.28,27.54-52.31,50.34-70.6C271.43,571.69,370,584.15,370,584.15l-50.71-51.36S247,524,227.18,546.85s-43.85,88.81-44.91,93.4C180.6,647.39,190.91,661.09,199.25,659.81Z"/><polygon class="cls-2" points="365.77 575.77 310.98 572.85 285.88 528.23 309.09 525.58 365.77 575.77"/><path class="cls-2" d="M172.39,655.85S190,671.32,191.65,676.7s-6.36,30.06-13.68,28.2-23.54-16.78-34.1-33.78c-12.53-20.13-22.58-44-16.12-46.52C132.54,622.75,172.39,655.85,172.39,655.85Z"/><path class="cls-1" d="M549.78,541.69c7.35,13.64,46.71,62.91,89.12,61.33s69.14-25.15,77-26.73,17.81,12.57,16.24,18.86-60.66,67.79-135.74,56.61C547.12,644.43,503.11,602,495.77,581S544.56,532.06,549.78,541.69Z"/><path class="cls-2" d="M569.67,581s-15.21,32.48-42.45,44a123.65,123.65,0,0,1-29.88-28.3l48.74-44Z"/><path class="cls-1" d="M601.49,304.9c-5.24-.34-69.88,25.58-74.35,30s17.29,33.64,21.47,34.42,60.81-40.32,62.68-44.93S606.73,305.24,601.49,304.9Z"/><path class="cls-1" d="M568.24,257.11c3.42,37.51,20.2,63.24,27.35,66.31,5,2.13,26.93-16.61,31.52-23.14s19.09-55.62-6.41-76.13S565.47,226.71,568.24,257.11ZM602,279.7c-14.1-.88-15.6-36.15-3-36.42,15.78-.32,17.13,37.31,3,36.42Z"/><path class="cls-1" d="M594.51,316s-4.06,29,28.39,54.4c26,20.42,59,31.75,79.64,17.08C727.62,369.7,700,292.13,627.41,291,598.22,299.79,594.51,316,594.51,316Zm50.39,17.51c21.08-12.44,47,21.89,38.3,30.62C671.73,375.61,629.2,342.81,644.9,333.51Z"/><path class="cls-2" d="M540.6,335.76l15.83,38.67,21.08-15.82c-5.29-21.08-15.83-33.39-15.83-33.39Z"/><path class="cls-2" d="M758.36,603c11,11.53,22,25.67,25.16,23.58,3.38-2.26,0-17.27-4.75-34.59s-20.94-46.66-33-50.32c-6.39-1.94-23.87,12.61-18.87,25.16C730.05,574.71,749,593.23,758.36,603Z"/><path class="cls-3" d="M296.07,494.52c-42.42-56.61-81.73-180.82-55-210.7S352.74,276,412.46,353s82.47,223.3,44,245.3C412.43,623.46,338.49,551.13,296.07,494.52Z"/><path class="cls-4" d="M237.9,419.05C280.35,515,354.25,601.44,425,617.17c61.81,13.73,133.65-66,139.94-73.9,16-20,24.77-47.1,14.2-117.93-11-73.91-66-162-127.36-196.57s-103.16-25.78-124.22-22c-61.32,11-99.07,37.61-110.07,56.61C200.16,293.25,223.59,386.74,237.9,419.05Zm6.32-135.23c23.22-40.59,117.93,18.87,166.68,99.06C452.6,451.55,483.18,559,447,585.72s-108.37-52-138.37-97.49C266.2,423.76,225.31,316.84,244.22,283.82Z"/><path class="cls-5" d="M389.43,440.11c39.2,47.6,65.41,145.09,35,151.38-24.1,0-67.84-32.13-103.78-80.72-38.73-52.41-61.8-116.37-66-152C301.82,357.72,365,410.47,389.43,440.11Z"/><path class="cls-6" d="M355.31,460.4c-16.44,8.49-53-49.06-36.54-57.51C339.53,392.22,371.75,451.91,355.31,460.4Z"/><path class="cls-6" d="M246.76,392.07c12.4,7.19,97.46,56.19,97.46,56.19l-9.75-21.52s-79.92-49.25-88.57-50.37S237.5,386.71,246.76,392.07Z"/><path class="cls-6" d="M287.42,326c-19.14-.8-28.64-38.58-19.14-39.58C283.76,284.75,300.17,326.54,287.42,326Z"/><path class="cls-6" d="M445.77,434c-2.21-24.48-47.25-18.77-44,3.58C404.4,455.55,448,458.45,445.77,434Z"/><path class="cls-6" d="M358.21,376.74c0,10.46-13.37,56.46-13.37,56.46l-10-14.79s6.68-48.77,10-53.77S358.21,366.28,358.21,376.74Z"/><path class="cls-6" d="M401.35,542.8c10.61-2,22.84,28.65,8.84,25.55C401.35,566.38,390.74,544.77,401.35,542.8Z"/><path class="cls-6" d="M264.94,453.61c-6.85-17,31.89-17,35.7-5.18C304.28,459.82,269.64,465.33,264.94,453.61Z"/><path class="cls-3" d="M379,302.67c-17.76-13.36,88.13-44,97.81-33C486,280.05,400.64,318.93,379,302.67Z"/><path class="cls-2" d="M377.32,200.48c-15.15-1.4-37.81-6.9-68.15,0C263.05,210.93,240,231.93,240,231.93s58.72,17.82,125.79,11.53c46.49-4.36,78.62-17.82,78.62-17.82S392.47,201.88,377.32,200.48Z"/><path class="cls-1" d="M360.18,218.22c-48.68-1.62-109.19-14.86-123-38.62-9.7-16.72,10.27-68.23,41.67-91C308.16,67.18,383.56,69,420.91,96.83c38.42,28.62,41.49,93.26,33.06,111.1C446.9,222.89,392.18,219.26,360.18,218.22Z"/><path class="cls-1" d="M341.35,73.14c-8.13,14.66-15.65,52-13.44,56.38,6.64,13,22,1.7,34.33-8,13.78-10.81,25.23-41.86,26.11-47.86C394.2,34.59,361.67,36.34,341.35,73.14Z"/><path class="cls-3" d="M425.52,145.15c-14.17,1-31.84-38-20.76-39.48C425.43,103,439.69,144.16,425.52,145.15Z"/><path class="cls-3" d="M416.47,335.89c-4.43-12.64,42.39-27.59,49-19.59C470.58,322.49,422.4,352.54,416.47,335.89Z"/><path class="cls-3" d="M423,182.71c-8,.55-18-21.49-11.72-22.3C423,158.91,431,182.16,423,182.71Z"/><path class="cls-7" d="M372.41,7.46C399.29.89,438.9,23,432.13,49.68c-6.23,24.09-38.23,23.56-65,9.32C339.39,44.2,345.53,14,372.41,7.46Z"/><path class="cls-2" d="M604.63,475.64c-1.94,16.22-23.93-.36-37-8.78C561.71,463.05,606.69,458.33,604.63,475.64Z"/><path class="cls-1" d="M537.37,469.24c-29.16,6.14-159.62,10.53-283.09,21.93-33.66,3.11-44.27-22.46-38.13-28.6s157.39-73,287.39-64.57C544.67,400.61,566.53,463.1,537.37,469.24Z"/><path class="cls-1" d="M95,416.13c-26-4.56-72.83-36.95-56.83-45.48C65.3,356.17,113.5,392,119.9,400,127.11,409.1,134.54,423.11,95,416.13Z"/><path class="cls-1" d="M37.56,419.23c-4.48-13.9,48.51-26.13,52.29-6.23C91.2,420.13,42,433.13,37.56,419.23Z"/><path class="cls-1" d="M53.27,383.58c7.9,10.17-46.61,20.66-52.9,8.08C-4.59,381.75,41.67,368.64,53.27,383.58Z"/><path class="cls-1" d="M56.91,380C40.66,390.82.52,364.54,6.66,362.3,26.58,355.06,73.16,369.1,56.91,380Z"/><path class="cls-1" d="M149.74,466c-7.49-17.32,13.42-22.9,35.92-22.9s69,36,59.62,44.53C223.69,507.11,157.23,483.29,149.74,466Z"/><path class="cls-1" d="M149.22,498.59c-8.39-8.39,39.84-39.84,52.46-19.5C212.9,497.11,157.38,506.74,149.22,498.59Z"/><path class="cls-1" d="M153.47,431.33c15-2.16,52.36,14.1,48.72,19.48C189.06,470.3,135.06,434,153.47,431.33Z"/><path class="cls-1" d="M125.38,455.14c18.72-17.32,92.71-18.63,76.3,1.94C193.67,467.09,106.66,472.46,125.38,455.14Z"/><path class="cls-1" d="M192.77,474.66c9.37-4.34,11.3-21.55-11.15-21.55s-82.21,26.73-64,32C132.6,489.45,183.4,479,192.77,474.66Z"/></g></g></g></g></svg>