<svg xmlns="http://www.w3.org/2000/svg" viewBox="0 0 784.9 705.01"><defs><style>.cls-1{fill:#e84a27;}.cls-2{fill:#111;}.cls-3,.cls-7{fill:#fff;}.cls-4{fill:#13294b;}.cls-5{fill:#fbf4cb;}.cls-6{fill:#03f;}.cls-7{stroke:#e84a27;stroke-miterlimit:10;stroke-width:12.58px;}</style></defs><g id="Layer_2" data-name="Layer 2"><g id="Layer_1-2" data-name="Layer 1"><path class="cls-1" d="M537.81,360c35.35-7.07,135.55,19.29,170.43,28.4,23.55,6.12-.09,23.2-18.28,27.74s-141.29-3.61-188.38-1.79C480.3,415.19,481.26,371.35,537.81,360Z"/><path class="cls-1" d="M602.63,640.25c-1.06-4.59-25.06-70.59-44.91-93.4s-92.08-14.06-92.08-14.06l-50.71,51.36s98.54-12.46,120.38,5.06c22.8,18.29,42,69.32,50.34,70.6S604.3,647.39,602.63,640.25Z"/><polygon class="cls-2" points="475.81 525.58 499.02 528.23 473.92 572.85 419.13 575.77 475.81 525.58"/><path class="cls-2" d="M657.15,624.6c6.46,2.52-3.59,26.39-16.12,46.52-10.56,17-26.78,31.92-34.1,33.78s-15.38-22.82-13.68-28.2,19.26-20.85,19.26-20.85S652.36,622.75,657.15,624.6Z"/><path class="cls-1" d="M289.13,581c-7.34,21-51.35,63.43-100.63,70.76-75.08,11.18-134.17-50.32-135.74-56.61S61.14,574.71,69,576.29s34.59,25.15,77,26.73,81.77-47.69,89.12-61.33C240.34,532.06,296.45,560,289.13,581Z"/><path class="cls-2" d="M238.82,552.7l48.74,44A123.56,123.56,0,0,1,257.68,625c-27.24-11.52-42.45-44-42.45-44Z"/><path class="cls-1" d="M173.61,324.39c1.87,4.61,58.5,45.71,62.68,44.93s25.94-30,21.47-34.42-69.11-30.34-74.35-30S171.72,319.79,173.61,324.39Z"/><path class="cls-1" d="M164.2,224.15c-25.5,20.51-11,69.6-6.41,76.13s26.56,25.27,31.52,23.14c7.15-3.07,23.93-28.8,27.35-66.31C219.43,226.71,189.7,203.65,164.2,224.15Zm18.7,55.55c-14.13.89-12.78-36.74,3-36.42C198.5,243.55,197,278.82,182.9,279.7Z"/><path class="cls-1" d="M157.49,291c-72.57,1.13-100.21,78.7-75.13,96.48C103.05,402.15,136,390.82,162,370.4,194.45,345,190.39,316,190.39,316S186.68,299.79,157.49,291ZM101.7,364.13C93,355.4,118.92,321.07,140,333.51,155.7,342.81,113.17,375.61,101.7,364.13Z"/><path class="cls-2" d="M223.22,325.22s-10.54,12.31-15.83,33.39l21.08,15.82,15.83-38.67Z"/><path class="cls-2" d="M58,566.85c5-12.55-12.48-27.1-18.87-25.16-12.06,3.66-28.3,33-33,50.32S-2,624.34,1.38,626.6c3.15,2.09,14.16-12.05,25.16-23.58C35.88,593.23,54.85,574.71,58,566.85Z"/><path class="cls-3" d="M328.44,598.3c-38.47-22-15.72-168.25,44-245.3s144.66-99.06,171.39-69.18-12.58,154.09-55,210.7S372.47,623.46,328.44,598.3Z"/><path class="cls-4" d="M567.45,263.38c-11-19-48.75-45.6-110.07-56.61-21.06-3.78-62.9-12.58-124.22,22S216.8,351.43,205.8,425.34C195.23,496.17,204,523.28,220,543.27c6.29,7.86,78.13,87.63,139.94,73.9C430.65,601.44,504.55,515,547,419.05,561.31,386.74,584.74,293.25,567.45,263.38Zm-91.2,224.85c-30,45.53-102.21,124.22-138.37,97.49S332.3,451.55,374,382.88c48.75-80.19,143.46-139.65,166.68-99.06C559.59,316.84,518.7,423.76,476.25,488.23Z"/><path class="cls-5" d="M530.25,358.77c-4.2,35.63-27.27,99.59-66,152-35.94,48.59-79.68,80.72-103.78,80.72-30.41-6.29-4.2-103.78,35-151.38C419.86,410.47,483.08,357.72,530.25,358.77Z"/><path class="cls-6" d="M466.13,402.89c16.43,8.45-20.1,66-36.54,57.51S445.37,392.22,466.13,402.89Z"/><path class="cls-6" d="M539,376.37c-8.65,1.12-88.57,50.37-88.57,50.37l-9.75,21.52s85.06-49,97.46-56.19C547.4,386.71,547.67,375.26,539,376.37Z"/><path class="cls-6" d="M516.62,286.44c9.5,1,0,38.78-19.14,39.58C484.73,326.54,501.14,284.75,516.62,286.44Z"/><path class="cls-6" d="M383.13,437.55c3.25-22.35-41.79-28.06-44-3.58S380.5,455.55,383.13,437.55Z"/><path class="cls-6" d="M440.06,364.64c3.37,5,10.05,53.77,10.05,53.77L440.06,433.2s-13.37-46-13.37-56.46S436.72,359.61,440.06,364.64Z"/><path class="cls-6" d="M374.71,568.35c-14,3.1-1.77-27.52,8.84-25.55S383.55,566.38,374.71,568.35Z"/><path class="cls-6" d="M484.26,448.43c3.81-11.83,42.55-11.83,35.7,5.18C515.26,465.33,480.62,459.82,484.26,448.43Z"/><path class="cls-3" d="M308.05,269.67c9.68-11,115.57,19.64,97.81,33C384.26,318.93,298.94,280.05,308.05,269.67Z"/><path class="cls-2" d="M340.51,225.64s32.13,13.46,78.62,17.82c67.07,6.29,125.79-11.53,125.79-11.53s-23.07-21-69.19-31.45c-30.34-6.9-53-1.4-68.15,0S340.51,225.64,340.51,225.64Z"/><path class="cls-1" d="M330.93,207.93c-8.43-17.84-5.36-82.48,33.06-111.1C401.34,69,476.74,67.18,506.05,88.55c31.4,22.82,51.37,74.33,41.67,91.05-13.81,23.76-74.32,37-123,38.62C392.72,219.26,338,222.89,330.93,207.93Z"/><path class="cls-1" d="M396.55,73.66c.88,6,12.33,37.05,26.11,47.86,12.34,9.7,27.69,21,34.33,8,2.21-4.37-5.31-41.72-13.44-56.38C423.23,36.34,390.7,34.59,396.55,73.66Z"/><path class="cls-3" d="M380.14,105.67c11.08,1.44-6.59,40.47-20.76,39.48S359.47,103,380.14,105.67Z"/><path class="cls-3" d="M319.43,316.3c6.61-8,53.43,6.95,49,19.59C362.5,352.54,314.32,322.49,319.43,316.3Z"/><path class="cls-3" d="M373.6,160.41c6.27.81-3.71,22.85-11.72,22.3S361.93,158.91,373.6,160.41Z"/><path class="cls-7" d="M417.78,59C391,73.24,359,73.77,352.77,49.68,346,23,385.61.89,412.49,7.46S445.51,44.2,417.78,59Z"/><path class="cls-2" d="M217.27,466.86c-13.07,8.42-35.06,25-37,8.78C178.21,458.33,223.19,463.05,217.27,466.86Z"/><path class="cls-1" d="M281.36,398c130-8.39,281.25,58.43,287.39,64.57s-4.47,31.71-38.13,28.6c-123.47-11.4-253.93-15.79-283.09-21.93S240.23,400.61,281.36,398Z"/><path class="cls-1" d="M665,400c6.4-8,54.6-43.83,81.77-29.35,16,8.53-30.86,40.92-56.83,45.48C650.36,423.11,657.79,409.1,665,400Z"/><path class="cls-1" d="M695.05,413c3.78-19.9,56.77-7.67,52.29,6.23S693.7,420.13,695.05,413Z"/><path class="cls-1" d="M784.53,391.66c-6.29,12.58-60.8,2.09-52.9-8.08C743.23,368.64,789.49,381.75,784.53,391.66Z"/><path class="cls-1" d="M778.24,362.3c6.14,2.24-34,28.52-50.25,17.66S758.32,355.06,778.24,362.3Z"/><path class="cls-1" d="M539.62,487.6c-9.41-8.51,37.12-44.53,59.62-44.53s43.41,5.58,35.92,22.9S561.21,507.11,539.62,487.6Z"/><path class="cls-1" d="M583.22,479.09c12.62-20.34,60.85,11.11,52.46,19.5C627.52,506.74,572,497.11,583.22,479.09Z"/><path class="cls-1" d="M582.71,450.81c-3.64-5.38,33.73-21.64,48.72-19.48C649.84,434,595.84,470.3,582.71,450.81Z"/><path class="cls-1" d="M583.22,457.08c-16.41-20.57,57.58-19.26,76.3-1.94S591.23,467.09,583.22,457.08Z"/><path class="cls-1" d="M667.28,485.11c18.21-5.27-41.55-32-64-32s-20.52,17.21-11.15,21.55S652.3,489.45,667.28,485.11Z"/></g></g></svg>