<svg xmlns="http://www.w3.org/2000/svg" viewBox="0 0 2466.13 2439.98"><defs><style>.cls-1{fill:#dbe3ee;}.cls-2{fill:none;stroke:#102770;stroke-miterlimit:10;stroke-width:0;}.cls-3{fill:#102770;}.cls-4{opacity:0.3;}.cls-5{fill:#fff;}.cls-6{fill:#ffbf31;}.cls-7{fill:#d69c29;}.cls-8{opacity:0.65;}.cls-9{fill:#f59eb4;}.cls-10{fill:#6b184e;}.cls-11{fill:#efcea8;}.cls-12{fill:#f15a23;}.cls-13{opacity:0.5;}</style></defs><g id="Layer_2" data-name="Layer 2"><g id="Layer_1-2" data-name="Layer 1"><polygon class="cls-1" points="2014.23 2426.76 103.3 2426.76 876.1 1065.48 1237.03 1065.48 2014.23 2426.76"/><polygon class="cls-2" points="2014.23 2426.76 103.3 2426.76 876.1 1065.48 1237.03 1065.48 2014.23 2426.76"/><path class="cls-3" d="M2014.24,2440H228a85.8,85.8,0,0,1-74.62-128.16L864.6,1059a13.22,13.22,0,0,1,11.5-6.7H1237a13.24,13.24,0,0,1,11.48,6.67L2025.72,2420.2a13.22,13.22,0,0,1-11.48,19.78ZM883.8,1078.7,176.34,2324.88A59.36,59.36,0,0,0,228,2413.54h1763.5L1229.35,1078.7Z"/><path class="cls-1" d="M156.41,2333.19H876.1v93.57H129c-55.59,0-90.5-60-63.06-108.31l711.27-1253H876.1Z"/><path class="cls-2" d="M156.41,2333.19H876.1v93.57H129c-55.59,0-90.5-60-63.06-108.31l711.27-1253H876.1Z"/><polyline class="cls-1" points="876.1 2333.21 2452.91 2333.21 2452.91 2426.76 876.1 2426.76"/><polyline class="cls-2" points="876.1 2333.21 2452.91 2333.21 2452.91 2426.76 876.1 2426.76"/><g class="cls-4"><polyline class="cls-3" points="876.1 2333.21 2452.91 2333.21 2452.91 2426.76 876.1 2426.76"/></g><path class="cls-3" d="M876.1,2440H129a85.73,85.73,0,0,1-74.56-128.05L765.74,1059a13.22,13.22,0,0,1,11.5-6.7H876.1A13.23,13.23,0,0,1,887.6,1072L179.12,2320h697a13.22,13.22,0,0,1,13.22,13.22v93.57A13.22,13.22,0,0,1,876.1,2440ZM784.94,1078.7,77.47,2325A59.29,59.29,0,0,0,129,2413.54H862.88v-67.13H156.41a13.22,13.22,0,0,1-11.5-19.75l708.48-1248Z"/><g class="cls-4"><path class="cls-3" d="M1760,1981.52c-187,173.34-437.39,279.34-712.55,279.34-239.19,0-459.69-80.12-636.12-215q-32.26-24.66-62.46-51.7L876.1,1065.48H1237Z"/></g><path class="cls-1" d="M2063.34,1056.24c0,549.17-445.19,994.36-994.4,994.36-226.9,0-436-76-603.38-203.93-237.65-181.67-391-468.16-391-790.43,0-1.85,0-3.7.05-5.55C77.57,504,521.62,61.83,1068.94,61.83c164.7,0,320.07,40,456.83,110.89l.09.05h0a999.56,999.56,0,0,1,283.44,219.67c136.59,152.18,226.9,346.77,248.85,561.59A1018.44,1018.44,0,0,1,2063.34,1056.24Z"/><path class="cls-5" d="M2058.18,934.75l-910.62,119.71-27-63.73,688.79-617.57C1945.92,525.34,2036.23,719.93,2058.18,934.75Z"/><path class="cls-5" d="M1008.24,1139.7,465.55,1827.39c-237.65-181.67-391-468.16-391-790.43,0-1.85,0-3.7,0-5.55l885.32-5.91Z"/><polygon class="cls-5" points="1525.85 153.49 1525.76 153.44 1282.47 69.22 1068.93 927.22 1098.28 960.71 1639.91 222.73 1525.85 153.49"/><path class="cls-3" d="M1052.83,2044.55c-555.59,0-1007.61-452-1007.61-1007.6S497.24,29.34,1052.83,29.34,2060.44,481.35,2060.44,1037,1608.43,2044.55,1052.83,2044.55Zm0-1988.77c-541,0-981.16,440.15-981.16,981.17s440.15,981.16,981.16,981.16S2034,1578,2034,1037,1593.85,55.78,1052.83,55.78Z"/><g class="cls-4"><path class="cls-3" d="M1883.25,485.37a999.72,999.72,0,0,0-266.08-200.8h-.05l-.08-.05c-136.77-70.87-292.13-110.89-456.84-110.89-547.31,0-991.36,442.2-994.31,988.85,0,1.86,0,3.71,0,5.56,0,212.35,66.6,409.19,180,570.72C177.65,1560.7,74.56,1320.49,74.56,1056.22c0-1.85,0-3.7,0-5.55,3-546.66,447-988.86,994.32-988.86,164.7,0,320.06,40,456.83,110.9l.09,0h0a1000.25,1000.25,0,0,1,357.36,312.62Z"/></g><path class="cls-1" d="M1815.47,322.45C1616.08,123.06,1351,13.22,1068.94,13.22A1067.64,1067.64,0,0,0,865.45,32.7a1041.27,1041.27,0,0,0-264.54,89.39A1057,1057,0,0,0,322.45,322.45C123.06,521.84,13.22,787,13.22,1068.94S123.06,1616,322.45,1815.43a1057,1057,0,0,0,278.46,200.36,1040.86,1040.86,0,0,0,264.54,89.38,1067.64,1067.64,0,0,0,203.49,19.48c282,0,547.14-109.83,746.53-309.22s309.18-464.5,309.18-746.49S2014.86,521.84,1815.47,322.45ZM1130,2015.79q-30.29,1.92-61,1.94a947.33,947.33,0,0,1-203.49-22c-425.68-93.35-745.26-473.45-745.26-926.8s319.58-833.45,745.26-926.8a947.33,947.33,0,0,1,203.49-22q30.74,0,61,1.94c494.82,31.6,887.75,444.18,887.75,946.85S1624.8,1984.19,1130,2015.79Z"/><path class="cls-5" d="M1814.37,317C1615,117.56,1349.86,7.73,1067.83,7.73A1067.64,1067.64,0,0,0,864.34,27.21a1040.92,1040.92,0,0,0-264.53,89.38A1056.84,1056.84,0,0,0,321.34,317C122,516.35,12.12,781.46,12.12,1063.44c0,271.72,102,527.75,287.85,724.46C130.9,1595.38,38.56,1351,38.56,1092.49c0-282,109.84-547.1,309.23-746.49A1057,1057,0,0,1,626.25,145.64,1040.86,1040.86,0,0,1,890.79,56.26a1067.64,1067.64,0,0,1,203.49-19.49c282,0,547.14,109.84,746.53,309.23,7.27,7.27,14.41,14.59,21.38,22Q1839.24,341.85,1814.37,317Z"/><path class="cls-3" d="M1068.94,2137.88a1084,1084,0,0,1-206-19.73A1054.83,1054.83,0,0,1,595,2027.63,1069.5,1069.5,0,0,1,313.1,1824.78C111.19,1622.87,0,1354.44,0,1068.94S111.19,515,313.1,313.1A1069.52,1069.52,0,0,1,595,110.24,1055.54,1055.54,0,0,1,862.92,19.72,1084.85,1084.85,0,0,1,1068.94,0c285.53,0,554,111.19,755.88,313.1s313,470.31,313,755.84-111.18,554-313,755.84S1354.47,2137.88,1068.94,2137.88Zm0-2111.43A1057.39,1057.39,0,0,0,868,45.69a1028.56,1028.56,0,0,0-261.17,88.24,1043.24,1043.24,0,0,0-275,197.87C134.89,528.71,26.45,790.5,26.45,1068.94s108.44,540.23,305.35,737.14a1043.22,1043.22,0,0,0,275,197.86A1028.79,1028.79,0,0,0,868,2092.19a1057.39,1057.39,0,0,0,201,19.24c278.47,0,540.27-108.44,737.18-305.35s305.31-458.68,305.31-737.14S2003,528.68,1806.12,331.8,1347.4,26.45,1068.94,26.45Zm0,2004.5a963.21,963.21,0,0,1-206.33-22.3c-210.72-46.21-402.38-164.46-539.67-333a960.29,960.29,0,0,1,0-1213.5c137.29-168.51,329-286.75,539.67-333a966.79,966.79,0,0,1,268.21-20.34C1635.57,141.13,2031,562.83,2031,1068.94s-395.38,927.81-900.13,960h0C1110.24,2030.29,1089.42,2031,1068.94,2031Zm61-15.16h0Zm-61-1882.42a936.45,936.45,0,0,0-200.66,21.69c-425.81,93.37-734.87,477.72-734.87,913.88s309.06,820.5,734.87,913.88a940.8,940.8,0,0,0,260.86,19.78h0c490.86-31.36,875.36-441.46,875.36-933.66S1620,166.63,1129.14,135.28C1109.12,134,1088.87,133.37,1068.94,133.37Z"/><circle class="cls-1" cx="1052.83" cy="1036.95" r="138.29"/><path class="cls-5" d="M1180.44,983.63a138.33,138.33,0,0,0-239.23,134.95,138.29,138.29,0,1,1,239.23-134.95Z"/><circle class="cls-3" cx="1052.83" cy="1036.95" r="45.45"/><path class="cls-3" d="M1052.83,1188.46c-83.54,0-151.51-68-151.51-151.51s68-151.52,151.51-151.52,151.52,68,151.52,151.52S1136.38,1188.46,1052.83,1188.46Zm0-276.59A125.07,125.07,0,1,0,1177.9,1037,125.22,125.22,0,0,0,1052.83,911.87Z"/><path class="cls-1" d="M362.52,1668.63h233a0,0,0,0,1,0,0V1763a0,0,0,0,1,0,0h-233a47.21,47.21,0,0,1-47.21-47.21v0A47.21,47.21,0,0,1,362.52,1668.63Z"/><path class="cls-5" d="M595.49,1668.63v26.45H368a47.21,47.21,0,0,0-47,43.28,47.25,47.25,0,0,1,41.52-69.73Z"/><path class="cls-3" d="M595.47,1776.27h-233a60.43,60.43,0,0,1,0-120.86h233a13.22,13.22,0,0,1,13.22,13.22v94.42A13.22,13.22,0,0,1,595.47,1776.27Zm-233-94.42a34,34,0,0,0,0,68H582.25v-68Z"/><path class="cls-3" d="M595.47,1776.27h-233a60.43,60.43,0,0,1,0-120.86h233a13.22,13.22,0,0,1,13.22,13.22v94.42A13.22,13.22,0,0,1,595.47,1776.27Zm-233-94.42a34,34,0,0,0,0,68H582.25v-68Z"/><path class="cls-1" d="M150,1244.73H383a0,0,0,0,1,0,0v94.42a0,0,0,0,1,0,0H150a47.21,47.21,0,0,1-47.21-47.21v0A47.21,47.21,0,0,1,150,1244.73Z"/><path class="cls-5" d="M383,1244.73v26.44H155.51a47.23,47.23,0,0,0-47,43.28A47.25,47.25,0,0,1,150,1244.73Z"/><path class="cls-3" d="M383,1352.37H150a60.43,60.43,0,0,1,0-120.86H383a13.22,13.22,0,0,1,13.22,13.22v94.41A13.22,13.22,0,0,1,383,1352.37ZM150,1258a34,34,0,0,0,0,68H369.74v-68Z"/><path class="cls-3" d="M383,1352.37H150a60.43,60.43,0,0,1,0-120.86H383a13.22,13.22,0,0,1,13.22,13.22v94.41A13.22,13.22,0,0,1,383,1352.37ZM150,1258a34,34,0,0,0,0,68H369.74v-68Z"/><path class="cls-1" d="M138.25,844.52h233a0,0,0,0,1,0,0v94.42a0,0,0,0,1,0,0h-233A47.21,47.21,0,0,1,91,891.73v0A47.21,47.21,0,0,1,138.25,844.52Z"/><path class="cls-5" d="M371.22,844.52V871H143.75a47.23,47.23,0,0,0-47,43.28,47.25,47.25,0,0,1,41.51-69.72Z"/><path class="cls-3" d="M371.21,952.16h-233a60.43,60.43,0,1,1,0-120.86h233a13.22,13.22,0,0,1,13.22,13.22v94.41A13.22,13.22,0,0,1,371.21,952.16Zm-233-94.42a34,34,0,1,0,0,68H358v-68Z"/><path class="cls-3" d="M371.21,952.16h-233a60.43,60.43,0,1,1,0-120.86h233a13.22,13.22,0,0,1,13.22,13.22v94.41A13.22,13.22,0,0,1,371.21,952.16Zm-233-94.42a34,34,0,1,0,0,68H358v-68Z"/><path class="cls-1" d="M290.08,444.31H523a0,0,0,0,1,0,0v94.42a0,0,0,0,1,0,0h-233a47.21,47.21,0,0,1-47.21-47.21v0a47.21,47.21,0,0,1,47.21-47.21Z"/><path class="cls-5" d="M523.05,444.31v26.44H295.58a47.25,47.25,0,0,0-47,43.28,47.26,47.26,0,0,1,41.52-69.72Z"/><path class="cls-3" d="M523,552H290.08a60.43,60.43,0,1,1,0-120.86H523a13.22,13.22,0,0,1,13.23,13.22v94.41A13.23,13.23,0,0,1,523,552ZM290.08,457.53a34,34,0,1,0,0,68H509.81v-68Z"/><path class="cls-3" d="M523,552H290.08a60.43,60.43,0,1,1,0-120.86H523a13.22,13.22,0,0,1,13.23,13.22v94.41A13.23,13.23,0,0,1,523,552ZM290.08,457.53a34,34,0,1,0,0,68H509.81v-68Z"/><path class="cls-1" d="M1837.62,319.67h233a0,0,0,0,1,0,0v94.42a0,0,0,0,1,0,0h-233a47.21,47.21,0,0,1-47.21-47.21v0A47.21,47.21,0,0,1,1837.62,319.67Z"/><path class="cls-5" d="M2070.59,319.67v26.44H1843.12a47.25,47.25,0,0,0-47,43.28,47.26,47.26,0,0,1,41.52-69.72Z"/><path class="cls-3" d="M2070.57,427.31h-233a60.44,60.44,0,0,1,0-120.87h233a13.23,13.23,0,0,1,13.23,13.23v94.41A13.23,13.23,0,0,1,2070.57,427.31Zm-233-94.42a34,34,0,1,0,0,68h219.73v-68Z"/><path class="cls-3" d="M2070.57,427.31h-233a60.44,60.44,0,0,1,0-120.87h233a13.23,13.23,0,0,1,13.23,13.23v94.41A13.23,13.23,0,0,1,2070.57,427.31Zm-233-94.42a34,34,0,1,0,0,68h219.73v-68Z"/><path class="cls-1" d="M2284.33,784.61H2051.38a47.21,47.21,0,0,1-47.21-47.21h0a47.21,47.21,0,0,1,47.21-47.21h232.95Z"/><path class="cls-2" d="M2284.33,784.61H2051.38a47.21,47.21,0,0,1-47.21-47.21h0a47.21,47.21,0,0,1,47.21-47.21h232.95Z"/><path class="cls-1" d="M2051.38,690.19h233a0,0,0,0,1,0,0v94.42a0,0,0,0,1,0,0h-233a47.21,47.21,0,0,1-47.21-47.21v0A47.21,47.21,0,0,1,2051.38,690.19Z"/><path class="cls-5" d="M2284.35,690.19v26.45H2056.88a47.25,47.25,0,0,0-47,43.28,47.26,47.26,0,0,1,41.52-69.73Z"/><path class="cls-3" d="M2284.33,797.83H2051.38a60.43,60.43,0,1,1,0-120.86h232.95a13.22,13.22,0,0,1,13.23,13.22v94.42A13.22,13.22,0,0,1,2284.33,797.83Zm-232.95-94.41a34,34,0,1,0,0,68h219.73v-68Z"/><path class="cls-3" d="M2284.33,797.83H2051.38a60.43,60.43,0,1,1,0-120.86h232.95a13.22,13.22,0,0,1,13.23,13.22v94.42A13.22,13.22,0,0,1,2284.33,797.83Zm-232.95-94.41a34,34,0,1,0,0,68h219.73v-68Z"/><path class="cls-1" d="M694.79,142.67H876.08a0,0,0,0,1,0,0v94.42a0,0,0,0,1,0,0H694.79a47.21,47.21,0,0,1-47.21-47.21v0a47.21,47.21,0,0,1,47.21-47.21Z"/><path class="cls-5" d="M876.09,142.67v26.44H700.29a47.23,47.23,0,0,0-47,43.28,47.25,47.25,0,0,1,41.51-69.72Z"/><path class="cls-3" d="M876.08,250.31H694.79a60.44,60.44,0,0,1,0-120.87H876.08a13.22,13.22,0,0,1,13.22,13.23v94.41A13.22,13.22,0,0,1,876.08,250.31ZM694.79,155.89a34,34,0,0,0,0,68H862.86v-68Z"/><path class="cls-3" d="M876.08,250.31H694.79a60.44,60.44,0,0,1,0-120.87H876.08a13.22,13.22,0,0,1,13.22,13.23v94.41A13.22,13.22,0,0,1,876.08,250.31ZM694.79,155.89a34,34,0,0,0,0,68H862.86v-68Z"/><path class="cls-6" d="M2244.49,1151.25c33,240.08-46.1,463.14-171.23,589.89A1130.34,1130.34,0,0,1,1930.5,1864c-129.8,93.75-266.12,147.12-397.77,167.31-256,39.27-494.51-46.89-634.14-206.09-77.31-88.11-124.25-198.51-127.16-322.45a526.88,526.88,0,0,1,1.63-55.67c52.89-225.52,209.76-322,377.59-274.76,52,15.61,102.43,28.65,140.55,26.54,26.54-1.46,47.12-10.23,58-30.64l.09.14c-5.25-39.93,9.83-79.69,48-102.92a128.18,128.18,0,0,1,30-13.26c3-1,6-1.77,9.08-2.52,111.11-251.31,456.12-247.61,702.94-58.09,180.31-9.12,229,38.26,105.16,159.6l-35.7,32.92c3.17-2.78,6.26-5.51,9.3-8.2Q2232.37,1163.11,2244.49,1151.25Z"/><path class="cls-7" d="M1982.73,914c-51.83-4.94-95,16.4-133.15,53.07-35,43.06-85.1,62.85-143.81,49.23a57.09,57.09,0,0,1-27.86-15.17c-44.6-45.66,32.13-129.57,103.71-148.31C1868.94,870.2,1948.43,888.73,1982.73,914Z"/><path class="cls-5" d="M1505.89,1924.58c-210.94,63.91-457.4,64.13-607.3-99.34-88.68-101.06-137.47-231.57-125.53-378.12,52.89-225.52,209.76-322,377.59-274.76,88.15,26.45,172,45.58,198.6-4.1l.09.14c-6.44-49.1,17.85-98,78-116.18,7.09,2.55,10.93,4,10.93,4s22.74-11.59,45,20.32c0,0,10.49,23.44,49.41,14.85,105.51-34.47,166.87-10.18,195.25,80.92,8.9,28.65,29.79,52.4,58,62.67,24.67,9,52.57,13.24,81.16,15,42.7,2.67,78.86,33.13,87.41,75C1994.43,1521.13,1774.42,1836.62,1505.89,1924.58Z"/><path class="cls-6" d="M1596.84,887.64q39.65-283.56,195.65-31.94"/><g class="cls-8"><path class="cls-5" d="M1792.51,855.69l-25.83,4.23q-74-117.21-121.29-112Q1697.28,702.11,1792.51,855.69Z"/></g><path class="cls-9" d="M1726.56,856c-13.78-28.74-29.19-51.77-47-66.34,0,0-24.24,26.44-32.32,80.06Z"/><g class="cls-8"><path class="cls-5" d="M2073.26,1741.14c-169.69,171.89-359.47,262.42-540.53,290.19,458.68-159.73,714.67-429.9,685.36-855.4v0l26.4-24.64C2277.46,1391.33,2198.39,1614.39,2073.26,1741.14Z"/></g><g class="cls-8"><path class="cls-5" d="M2277.41,1115.86c48.66-76.2-11-105.95-157.17-98.55-218.65-167.88-514.3-190-656.18-18.11,132.8-199.31,446.3-183.4,675.27-7.59C2301,983.42,2356.79,1020.66,2277.41,1115.86Z"/></g><g class="cls-4"><path class="cls-3" d="M1363.13,1276.69l-71.93-77.79c26.54-1.46,47.12-10.23,58-30.64l.09.14c-5.25-39.93,9.83-79.69,48-102.92-46.58,64-9.33,153.85,117.2,223a134.21,134.21,0,0,1,35.33,27.28C1616.08,1388.86,1449.24,1366.38,1363.13,1276.69Z"/></g><path class="cls-5" d="M1436.39,1049.7c-2.61.62-5.12,1.28-7.59,2.08a318.42,318.42,0,0,1,35.26-52.58A329.92,329.92,0,0,0,1436.39,1049.7Z"/><path class="cls-2" d="M1436.39,1049.7c-2.61.62-5.12,1.28-7.59,2.08a318.42,318.42,0,0,1,35.26-52.58A329.92,329.92,0,0,0,1436.39,1049.7Z"/><path class="cls-3" d="M1360.93,1174.49a65.88,65.88,0,0,1-18.83,21.8,74.58,74.58,0,0,1-25.18,11.93c-17.39,4.66-34.36,4.66-50.61,3.44-32.54-2.79-63.14-10.65-93.26-19l-22.41-6.5c-3.73-1.18-7.24-2-10.82-2.92s-7.09-2-10.75-2.6a296.12,296.12,0,0,0-43.86-6.21c-29.41-1.77-59.06,1.12-87.18,9.48A229.44,229.44,0,0,0,957.18,1200a237.62,237.62,0,0,0-37.47,23.11,261.86,261.86,0,0,0-33.27,29.12c-5.3,5.16-10.05,10.87-15,16.39-2.39,2.84-4.65,5.79-7,8.68s-4.63,5.81-6.75,8.87c-9,11.86-16.67,24.7-24.2,37.6a436.82,436.82,0,0,0-19.69,40.4,526.9,526.9,0,0,0-27.89,85.92l.3-2a578,578,0,0,0-.86,72,538.12,538.12,0,0,0,9.44,71.23,485,485,0,0,0,49.9,134.29c46.25,84.21,117.12,154,199.6,203.76,82.6,50,176.54,80.65,272.53,92.36s194.33,5,288.36-18.59c94.2-23.26,184-63.31,266.12-115.15a1032.37,1032.37,0,0,0,117.33-86.49q27.78-23.68,54.12-49c17.61-17,34.42-34.08,49.58-52.65,30.55-37,56-78.34,76.75-121.91a711,711,0,0,0,48.17-136.47c23-94.09,26.59-192.51,14.13-288.5l22.06,7.93-35.72,32.92-17.66-19.69c27.2-24,53.82-49.11,75.36-77,10.59-13.84,19.73-29,23.34-43.44,1.54-7.16,1.37-13.6-1-18.81s-7-9.91-13.29-13.81c-13.11-7.54-30.28-11.72-47.6-14a400.75,400.75,0,0,0-53.41-3.3c-36.1-.22-72.56,2.55-108.9,6.17l-2.4-26.34,66.07-5.21-7,23.67a686.14,686.14,0,0,0-173.15-96.51c-61.93-23.39-127.72-37-193.55-37.57-32.88-.18-65.77,2.88-97.61,10.26a340.62,340.62,0,0,0-90.83,34.79,296.34,296.34,0,0,0-75.42,60.38,307.57,307.57,0,0,0-52.24,81.61,13.15,13.15,0,0,1-8.86,7.47l-.16,0c-18.59,4.57-36.08,12.58-49.56,24.89a83.07,83.07,0,0,0-26.18,46.52,221.59,221.59,0,0,0-2.12,27.45,122.71,122.71,0,0,0,3.05,28.34c4.28,18.94,12.8,37.5,24.83,54.53a2.23,2.23,0,0,1-3.15,3.09,130.28,130.28,0,0,1-40.87-51.07,128.13,128.13,0,0,1-9.77-32.86,85.83,85.83,0,0,1,1.67-34.92,124.12,124.12,0,0,1,12.63-33,111.78,111.78,0,0,1,22.12-27.61c17.53-16,39.32-25.69,61.2-31l-9,7.51a334.33,334.33,0,0,1,56.7-88.53A323,323,0,0,1,1563.15,890a367.48,367.48,0,0,1,97.91-37.53c34.07-7.89,69-11.12,103.68-10.92,69.49.56,138.2,14.91,202.68,39.26a712,712,0,0,1,180,100.28,13.2,13.2,0,0,1-6.91,23.66h-.1L2074.3,1010h-.05a13.22,13.22,0,0,1-2.35-26.34c37-3.68,74.15-6.52,111.79-6.31a427.29,427.29,0,0,1,56.87,3.56c19,2.71,38.6,6.76,57.62,17.58,9.3,5.67,18.73,14.08,23.85,25.82s5,24.59,2.55,35.3c-5.47,21.43-16.51,38.18-28.07,53.59-23.64,30.51-51.08,56.15-79,80.89a13.22,13.22,0,0,1-17.74-19.61l.08-.07,35.71-32.92.07-.06a13.18,13.18,0,0,1,22,8c12.89,99.18,9.22,200.88-14.63,298.31a737.18,737.18,0,0,1-50,141.61c-21.57,45.32-48.14,88.46-80.26,127.41l-5.94,7.37c-2,2.41-4.25,4.68-6.36,7l-12.85,13.95c-4.22,4.76-8.7,9.06-13.14,13.41l-13.31,13.08q-26.89,25.9-55.37,50.13a1057.36,1057.36,0,0,1-120.3,88.67c-84.33,53.23-176.72,94.48-273.87,118.47-97,24.31-198.51,31.41-298,19.17s-196.88-43.89-283-96c-86-51.86-160.33-124.9-209.08-213.64a511,511,0,0,1-52.61-141.63,564,564,0,0,1-10-75.09,602.32,602.32,0,0,1,.91-75.65,11.52,11.52,0,0,1,.26-1.79l0-.16a554.53,554.53,0,0,1,29.32-90.27,461.93,461.93,0,0,1,20.93-42.92c8-13.8,16.28-27.53,26-40.34,2.29-3.29,4.74-6.47,7.29-9.58s5-6.31,7.55-9.38c5.35-6,10.52-12.18,16.29-17.82A289.46,289.46,0,0,1,904,1201.91a265,265,0,0,1,41.36-25.51,256,256,0,0,1,45.28-17.85c31.19-9.26,64-12.45,96.26-10.5a323.23,323.23,0,0,1,47.87,6.78c4,.71,7.85,1.9,11.78,2.85s7.92,2,11.56,3.12l22.13,6.42c29.37,8.17,59,15.62,88.2,18.07,14.48,1.15,28.93.86,41.47-2.56s22.12-10.28,27.74-20.71a13.22,13.22,0,0,1,23.32,12.47Z"/><path class="cls-10" d="M2244.49,1151.21v0q-15.93,15.6-35.7,32.88Z"/><path class="cls-2" d="M2244.49,1151.21v0q-15.93,15.6-35.7,32.88Z"/><path class="cls-3" d="M1596.86,900.87a12.89,12.89,0,0,1-1.85-.13,13.23,13.23,0,0,1-11.27-14.93c14.18-101.37,38.79-152.39,77.47-160.56,39.78-8.42,85.07,30.84,142.52,123.48a13.22,13.22,0,1,1-22.47,13.94c-64.76-104.43-99.58-114.74-114.59-111.55-14.39,3-40.9,25-56.74,138.36A13.22,13.22,0,0,1,1596.86,900.87Z"/><path class="cls-5" d="M1645.74,1405.61l-38.57,170.78c-68.84,14.64-131.51-4.36-188.72-52.75a153,153,0,0,1-13.09-12.48c-22.08-23.53-36.45-53.55-39-85.94q-6.47-83.43,94.41-54.12a214,214,0,0,1,20.67,7.18c9.57,3.79,18.91,8.24,28.12,13C1557.06,1415.83,1602.81,1423.94,1645.74,1405.61Z"/><path class="cls-5" d="M1219.54,1315.74a248.74,248.74,0,0,1-74.8-69.9L1327,1234.07c10.58,12.65,18.64,24.24,24.37,34.73,0,0,0,0,0,0C1396.15,1350.42,1304.78,1367.35,1219.54,1315.74Z"/><path class="cls-11" d="M1405.36,1511.16c-22.08-23.53-36.45-53.55-39-85.94q-6.47-83.43,94.41-54.12a214,214,0,0,1,20.67,7.18C1534.14,1501.11,1471.07,1559.25,1405.36,1511.16Z"/><path class="cls-11" d="M1219.54,1315.74c-4-68.58,35.92-88.59,131.69-47l.09.09s0,0,0,0C1396.15,1350.42,1304.78,1367.35,1219.54,1315.74Z"/><path class="cls-3" d="M1646.6,1407.63a116.11,116.11,0,0,1-39.68,14.14c-14.14,2.42-28.7,2-42.91,0a200,200,0,0,1-41.36-11l-9.86-4-9.65-4.31c-6-2.71-11.92-5.43-17.92-7.85a252,252,0,0,0-36.29-12c-12.31-3.07-24.72-5.4-36.12-5.19a47.74,47.74,0,0,0-15.51,2.52,26.2,26.2,0,0,0-10.65,7.5c-2.72,3.35-4.58,8-5.9,13-.37,2.72-1,5.37-1.11,8.25,0,2.94-.46,5.72-.16,8.8.44,24.33,9.44,48.19,23.5,68.2a154.65,154.65,0,0,0,24.61,27.43,368.37,368.37,0,0,0,30.55,23.87,261.37,261.37,0,0,0,33.51,19.08,204.1,204.1,0,0,0,36.39,13c25.13,6.62,51.79,7.64,78.68,5.13h0a2.21,2.21,0,0,1,.89,4.31c-26.13,8.44-54.66,11.71-82.83,8-28.27-3.3-55.56-13.73-80.2-27.87a291.41,291.41,0,0,1-34.94-24.23,158.84,158.84,0,0,1-30-32.5,152.35,152.35,0,0,1-27-83.89c-.27-3.69.25-7.68.38-11.5.29-3.87,1.1-7.9,1.8-11.85,2.09-8,5-16.34,10.74-23.7a53.15,53.15,0,0,1,21.78-16.16,76.45,76.45,0,0,1,24.24-4.91c15.72-.74,30.27,1.77,44.2,5.22a204.2,204.2,0,0,1,40.41,14.61c6.4,3.07,12.66,6.28,18.71,9.78l8.55,4.75,8.64,4.42a216.33,216.33,0,0,0,35.86,14,140.89,140.89,0,0,0,18.71,4.2c3.16.55,6.34.82,9.54,1.26,3.19.14,6.41.49,9.63.47a139.32,139.32,0,0,0,38.95-5h0a2.22,2.22,0,0,1,1.7,4.06Z"/><path class="cls-3" d="M1146.56,1244.57a375.4,375.4,0,0,0,31.51,30.52,304.66,304.66,0,0,0,35,25.15,248.3,248.3,0,0,0,38,18.88,175.64,175.64,0,0,0,40,11.25c13.37,2.17,27,2.31,38.53-.55,5.56-1.71,10.52-4,14.07-7a22,22,0,0,0,6.58-11.67c1.37-4.79.55-10.93-.25-17.08l-2.41-9.53q-1.77-4.77-3.41-9.71c-5.21-13-12.18-25.85-18.93-39.36l0-.08a2.24,2.24,0,0,1,3.41-2.75,155.27,155.27,0,0,1,31.74,33.59c2.09,3.4,4.14,6.87,6.14,10.38,1.79,3.7,3.42,7.54,5,11.44l1.77,6.27a32.29,32.29,0,0,1,1.32,6.53l.72,6.86c0,2.37-.28,4.83-.48,7.25a45.27,45.27,0,0,1-13.35,27.09c-7.63,6.9-16.47,10.82-25.11,13.22-17.34,4.23-34,3.12-49.77.18a199.37,199.37,0,0,1-44.75-15.18,223.85,223.85,0,0,1-73-55.89l-7.27-8.81c-2.41-2.93-4.45-6.19-6.67-9.24-4.55-6.06-8.13-12.81-11.94-19.26a2.2,2.2,0,0,1,.77-3,2.22,2.22,0,0,1,2.75.39Z"/><path class="cls-11" d="M1199.12,1677.77c36-47.75,72-23.46,55.09,33,32.43-7.92,52.64-3.07,33.06,43.34-75.66,163.08-236.54,123.41-153.53-69.05C1159.45,1628.55,1204.38,1632.22,1199.12,1677.77Z"/><g class="cls-4"><path class="cls-10" d="M1282.48,1764c-77.4,151.53-230,109.62-148.75-78.84,5.46-12.08,11.85-21.42,18.42-28.17C1083,1824.71,1202.92,1872,1282.48,1764Z"/><path class="cls-2" d="M1282.48,1764c-77.4,151.53-230,109.62-148.75-78.84,5.46-12.08,11.85-21.42,18.42-28.17C1083,1824.71,1202.92,1872,1282.48,1764Z"/></g><g class="cls-8"><path class="cls-5" d="M1160.21,1650c17.06-12.12,33.63-7.66,38.13,10.27-8,3.62-16.84,11-25.65,22.7C1174.72,1665.25,1169.21,1653.92,1160.21,1650Z"/></g><g class="cls-8"><path class="cls-5" d="M1287.28,1754.15c-32,68.84-79,101.54-116.62,101.9,31.51-11.68,65.41-43.37,90.18-96.75,19.57-46.41-.62-51.26-33.06-43.32,9-30.1,3-51.08-10.09-56.81,28.38-19.66,50.46,5,36.54,51.65C1286.66,1702.89,1306.85,1707.74,1287.28,1754.15Z"/></g><path class="cls-11" d="M810.72,1267.26c31.16-58.33,74.64-37.94,65.85,26.7,34.08-14.21,57-12.36,43.53,41.7-54.77,191.12-237.34,175.3-179.56-49.19C759,1220.27,808.67,1216.6,810.72,1267.26Z"/><g class="cls-4"><path class="cls-10" d="M898.24,1390.49c-69.69,130.41-209.23,96.12-157.7-104,6.79-24.37,17.8-40.28,29.13-48.08q-1.78,4.89-3.3,10.31C720.66,1426.32,825.43,1473.3,898.24,1390.49Z"/><path class="cls-2" d="M898.24,1390.49c-69.69,130.41-209.23,96.12-157.7-104,6.79-24.37,17.8-40.28,29.13-48.08q-1.78,4.89-3.3,10.31C720.66,1426.32,825.43,1473.3,898.24,1390.49Z"/></g><g class="cls-8"><path class="cls-5" d="M809.91,1259.28c-7.23,5.6-14.54,14.5-21.24,27.1-1.1-27.81-16.62-39.27-33.46-32.92C775.84,1223.36,804.67,1226.4,809.91,1259.28Z"/></g><g class="cls-8"><path class="cls-5" d="M920.1,1335.66c-16.31,56.94-44,95.51-73.25,115.65,20.67-22,39.09-54.17,51.21-96.52,13.44-54-9.43-55.89-43.55-41.7,6.09-44.73-12.87-68.27-35.48-59.19,29.93-41.12,65.59-19,57.52,40.07C910.67,1279.77,933.54,1281.58,920.1,1335.66Z"/></g><path class="cls-3" d="M1169.58,1869.13a68.86,68.86,0,0,1-28.29-5.81c-38.21-17.09-66.29-75.4-19.69-183.44,18.74-41.24,46.67-54.19,66.07-48.77,8.14,2.25,16.19,8.09,20.9,18.29,14.56-10.75,29.48-13.39,42.39-6.85,15.71,7.94,22.88,27.43,20.1,52,11.62-.76,22.87,1.29,30.4,10.12,12.6,14.79,4.89,38.24-2,54.58C1264.25,1835.18,1211.74,1869.13,1169.58,1869.13Zm9.12-212.78c-7.64,0-21.9,10-32.92,34.23-36.37,84.34-23.06,135.46,6.31,148.61,33,14.77,88.14-15.06,123.18-90.59,8.88-21.06,6.07-26.69,6-26.77h0s-4.33-3-23.94,1.84a13.23,13.23,0,0,1-15.81-16.64c7.1-23.73,2.8-38.19-2.51-40.88-4.26-2.15-15.57,1.29-29.35,19.58a13.23,13.23,0,0,1-23.7-9.48c1.22-10.53-1-18.44-5.38-19.67A7.55,7.55,0,0,0,1178.7,1656.35Z"/><path class="cls-3" d="M798.51,1481a71.45,71.45,0,0,1-18.87-2.47c-44.06-12-84.09-70.33-51.91-195.37,13.2-47.45,40.79-66,62.33-63.55,9.33,1.08,19.21,6.32,25.89,17.28,14-14.79,29.83-20.56,45-15.67,18.32,5.93,29.21,26.23,30,53.86,12.73-3.11,25.64-3.19,35.37,5.18,15.71,13.5,11.35,39.89,6.7,58.57C905.29,1435.32,846.86,1481,798.51,1481Zm-12.44-235.18c-8.83,0-24.18,13.22-32.79,44.18-25.56,99.32-1.71,153.5,33.29,163,39.29,10.71,95.21-31.66,120.82-121,6.58-26.49,1.66-31.64,1.61-31.68s-5-3.49-27.35,5.83a13.21,13.21,0,0,1-18.18-14c4-29.53-4.44-43.75-10.7-45.78-6.55-2.13-18.84,5.47-30.39,27.09a13.23,13.23,0,0,1-24.88-5.69c-.51-12.63-4.62-21.23-10.48-21.9A7.46,7.46,0,0,0,786.07,1245.84Z"/><path class="cls-3" d="M918.36,1308.71a57.25,57.25,0,0,1,39.17,2.55,70.94,70.94,0,0,1,28.32,22.4,71.9,71.9,0,0,1,13.83,31.65,66,66,0,0,1-3,33.17l-4.25-1.18a58.51,58.51,0,0,0-2.36-29.6,59.27,59.27,0,0,0-15.71-23.78,52.82,52.82,0,0,0-23.58-12.85c-8.38-1.94-16.56-1-23,2.37Z"/><path class="cls-3" d="M1644.55,1198.54a63.62,63.62,0,0,1-16.18,19c-23.88,18.3-52.09,4.9-55.62-21.11-1.19-8.37.27-18.11,5.2-28.47,15.16,4.23,34.91-3.17,48.31-28.3C1620.53,1168.53,1629.7,1188.76,1644.55,1198.54Z"/><path class="cls-12" d="M1628.37,1217.58c-23.88,18.3-52.09,4.9-55.62-21.11C1596.64,1178.18,1624.85,1191.58,1628.37,1217.58Z"/><path class="cls-3" d="M1251.47,1667.5c14.5-10.16,31.23-18.14,50-21.57,9.41-1.39,19.17-2.32,29-.63,2.45.4,4.91.75,7.34,1.24l7.19,2.26c4.87,1.22,9.15,4.1,13.57,6.33,4.3,2.48,8,5.82,11.9,8.74,3.33,3.49,6.7,7,9.61,10.67,2.58,3.9,5.37,7.67,7.62,11.65l5.77,12.26c6.4,16.68,9,33.82,9.81,50.72a2.23,2.23,0,0,1-4.29.95l0-.1c-6.26-15.5-12.47-30.58-20.89-43.73-8.63-12.83-19-23.82-31.39-28.89s-25.79-5.7-39.72-2.8-27.91,8.89-41.9,15.59l-.26.12a13.25,13.25,0,0,1-13.33-22.81Z"/><path class="cls-3" d="M1482.47,1022c-1.78,13.23-2.32,25.66,1.41,35.64s10.61,17,19.84,20.48,20.09,3.57,30.68,0c10.77-3.41,20.79-10.53,30.88-19.28l.06,0a2.27,2.27,0,0,1,3.65,2.43,60.05,60.05,0,0,1-26.91,33.38c-13.2,7.74-30.7,10.11-46.29,4.07a53.83,53.83,0,0,1-11-5.88,50.57,50.57,0,0,1-9.09-8.69,46.36,46.36,0,0,1-9.67-22.45c-2.19-16.08,3.76-30.7,12.44-41.46a2.28,2.28,0,0,1,4,1.74Z"/><path class="cls-3" d="M1762.06,1127.57c-2.79,16-1.65,31,4.63,43.08,6.1,12,16.39,21.42,28.69,25.52s26.14,3.13,39.12-2.94c13.16-5.89,24.91-16.29,36.36-27.9l0,0a2.25,2.25,0,0,1,3.18,0,2.27,2.27,0,0,1,.52,2.4c-6,15.67-16.22,30.42-31.33,40.87a65.32,65.32,0,0,1-25.9,10.5,61.39,61.39,0,0,1-28.8-2,60.55,60.55,0,0,1-39.51-39.53,57.14,57.14,0,0,1,9-51.7,2.28,2.28,0,0,1,3.19-.39A2.31,2.31,0,0,1,1762.06,1127.57Z"/><path class="cls-3" d="M1656.56,1142.72c-3.85,9.81-18.79,13.13-33.38,7.41s-23.3-18.31-19.45-28.12,16.37-7,31-1.25S1660.4,1132.91,1656.56,1142.72Z"/><path class="cls-3" d="M1605.07,1237a42.89,42.89,0,0,1-20-4.88c-19.81-10.47-32-37.47-17-68.85a11,11,0,0,1,12.91-5.86c9.39,2.63,24.37-1.79,35.62-22.87a11,11,0,0,1,20.53,7.33c-4.31,21.67.62,39,13.54,47.49a11,11,0,0,1,3.47,14.73C1640.36,1227.68,1621.7,1237,1605.07,1237Zm-20-56.9c-4.79,16,1.42,27.84,10.3,32.53,9.35,4.94,23,2.7,34.54-12-7.74-8-12.86-18.34-15.08-30.33C1604.83,1177.56,1594.25,1180.36,1585,1180.08Z"/><path class="cls-3" d="M1650.6,1189.33a114.37,114.37,0,0,0,12.09,3.51,50.72,50.72,0,0,0,13.29,1.21,52.54,52.54,0,0,0,14.78-3.13,92.51,92.51,0,0,0,15.47-7.44l0,0a1.67,1.67,0,0,1,2.27.62,1.69,1.69,0,0,1,.11,1.42,49.71,49.71,0,0,1-27.71,27.8,45.13,45.13,0,0,1-21.72,3.25,37.24,37.24,0,0,1-20.73-8.79,11.1,11.1,0,0,1,10.8-18.84Z"/><path class="cls-3" d="M1575,1178.62a32,32,0,0,1-20.17-11.63,35.86,35.86,0,0,1-7.93-21.16,43,43,0,0,1,3.83-20,49.38,49.38,0,0,1,11-15.11,1.66,1.66,0,0,1,2.79,1.39v.09a106.09,106.09,0,0,0-.94,16.47,39.07,39.07,0,0,0,2.88,13.57,26.76,26.76,0,0,0,6.41,9,59.51,59.51,0,0,0,8.06,6.17l1.72,1.17a11,11,0,0,1-7.62,20.07Z"/><path class="cls-9" d="M2179,1132c-7.35-35.26-21.2-59.24-44.81-88.89,40.49-12.37,84.16-13.39,130-6.61C2250,1079.18,2217.12,1107.59,2179,1132Z"/><g class="cls-13"><ellipse class="cls-9" cx="1795.23" cy="1282.2" rx="28.65" ry="59.34" transform="translate(-135.65 2349.25) rotate(-64.46)"/></g><g class="cls-13"><ellipse class="cls-9" cx="1438.23" cy="1119.74" rx="22.34" ry="46.27" transform="translate(-192.15 1934.71) rotate(-64.46)"/></g><path class="cls-3" d="M1680.92,788c12,7.47,22.53,17.37,32,28.07a299.36,299.36,0,0,1,25.6,34.27l-23.84,11.43a278.85,278.85,0,0,0-14.56-37.08c-5.83-11.91-12.8-23.35-21.94-33.28Z"/><path class="cls-3" d="M2263.93,1038.66a349.75,349.75,0,0,0-64.8,1.6,241.91,241.91,0,0,0-61,15.48h0l6.48-20.88c9.25,14.57,18.08,29.9,24.6,46.26a180.67,180.67,0,0,1,12,50.41,2.22,2.22,0,0,1-4.32.9,170.16,170.16,0,0,0-21.36-44.13c-9.1-13.35-20-25.32-31.63-37a12.38,12.38,0,0,1,6.3-20.85l.18,0h0a263.4,263.4,0,0,1,68.16-5.59,359.29,359.29,0,0,1,66,9.45,2.21,2.21,0,0,1-.64,4.36Z"/><g class="cls-4"><path class="cls-3" d="M1352.88,1332.14c-83-24.4-139.85-62.79-173.28-113.77a23.1,23.1,0,0,0-21.72-10.58c-45.31,5-54.63,35.28-13.14,101.22C1205.73,1399.36,1314.8,1448.33,1352.88,1332.14Z"/></g><g class="cls-4"><path class="cls-3" d="M1600.56,1611.65c-228.08,46.88-344.42-114-232.38-172.84-14.56-41.13,19.72-69.42,19.72-69.42-28.65,40.89,87.51,168.16,202.29,160.07,13.6-1,27.33-.35,40.45,3.38C1686.33,1548.69,1677.37,1593.84,1600.56,1611.65Z"/></g><g class="cls-4"><path class="cls-3" d="M1930.5,1864c-129.8,93.75-266.12,147.12-397.77,167.31-256,39.27-494.51-46.89-634.14-206.09-77.31-88.11-124.25-198.51-127.16-322.45l6,2.51v-37.42c40.51,14.59,72.15-6.21,99.35-44.82-4.41,32,11.54,49.41,58.22,44.82a444.44,444.44,0,0,1-29.65,40.93c-34.16,41.33-41.83,98.67-18.75,147.06,38.08,79.84,109.28,151.45,200.28,207-.4-31,11.11-65,24.59-99.6-1.67,88.19,36.36,115.16,126.76,61.26,29.71,29.22,66.29,45,124.86,17.81-24.68,53.9-55.4,86.91-91.19,102.16,207.37,62.06,456.26,50.11,658.08-88.41C1930,1856.05,1930.2,1858.91,1930.5,1864Z"/></g><path class="cls-1" d="M2117.55,322.45C1918.16,123.06,1653.05,13.22,1371,13.22A1067.64,1067.64,0,0,0,1167.53,32.7,1041.33,1041.33,0,0,0,903,122.09,1057,1057,0,0,0,624.53,322.45C425.14,521.84,315.31,787,315.31,1068.94S425.14,1616,624.53,1815.43A1057,1057,0,0,0,903,2015.79a1040.92,1040.92,0,0,0,264.53,89.38A1067.64,1067.64,0,0,0,1371,2124.65c282,0,547.14-109.83,746.53-309.22s309.19-464.5,309.19-746.49S2317,521.84,2117.55,322.45ZM1432.06,2015.79q-30.27,1.92-61,1.94a947.4,947.4,0,0,1-203.49-22c-425.67-93.35-745.25-473.45-745.25-926.8s319.58-833.45,745.25-926.8a947.4,947.4,0,0,1,203.49-22q30.75,0,61,1.94c494.83,31.6,887.75,444.18,887.75,946.85S1926.89,1984.19,1432.06,2015.79Z"/><path class="cls-5" d="M2117.55,322.47C1918.16,123.07,1653.05,13.24,1371,13.24a1067.64,1067.64,0,0,0-203.49,19.48A1041,1041,0,0,0,903,122.1,1057,1057,0,0,0,624.53,322.47C425.14,521.86,315.31,787,315.31,1069c0,154.75,33.05,304.43,95.9,440.92-52.8-126.84-80.48-264.13-80.48-405.66,0-282,109.84-547.09,309.23-746.49A1057,1057,0,0,1,918.42,157.36,1040.92,1040.92,0,0,1,1183,68a1067.82,1067.82,0,0,1,203.5-19.48c282,0,547.14,109.83,746.53,309.22A1056,1056,0,0,1,2346.3,663.29C2293.94,537.42,2216.85,421.76,2117.55,322.47Zm130.9,385.47a943.91,943.91,0,0,1,71.36,361c0,502.67-392.92,915.25-887.75,946.86q-30.27,1.9-61,1.93a947.4,947.4,0,0,1-203.49-22C874.87,1931.58,632.38,1731.88,509.41,1466c117.28,283.44,368.11,498,673.54,565a947.49,947.49,0,0,0,203.5,22q30.73,0,61-1.94c494.82-31.6,887.75-444.18,887.75-946.85A943.08,943.08,0,0,0,2248.45,707.94Z"/><path class="cls-3" d="M1371,2137.88a1083.86,1083.86,0,0,1-206-19.73,1054.83,1054.83,0,0,1-267.89-90.52,1069.39,1069.39,0,0,1-281.94-202.85c-201.9-201.91-313.09-470.34-313.09-755.84S413.28,515,615.18,313.1a1069.41,1069.41,0,0,1,282-202.86A1055.41,1055.41,0,0,1,1165,19.72,1084.67,1084.67,0,0,1,1371,0c285.54,0,554,111.19,755.88,313.1S2440,783.41,2440,1068.94s-111.18,554-313.06,755.84S1656.56,2137.88,1371,2137.88Zm0-2111.43a1057.21,1057.21,0,0,0-201,19.24,1028.77,1028.77,0,0,0-261.18,88.24,1043.4,1043.4,0,0,0-275,197.87C437,528.71,328.53,790.5,328.53,1068.94S437,1609.17,633.88,1806.08a1043.38,1043.38,0,0,0,275,197.86,1028.73,1028.73,0,0,0,261.19,88.25,1057.21,1057.21,0,0,0,201,19.24c278.47,0,540.27-108.44,737.18-305.35s305.31-458.67,305.31-737.14S2305.09,528.68,2108.2,331.8,1649.49,26.45,1371,26.45Zm0,2004.5a963.34,963.34,0,0,1-206.33-22.3C954,1962.44,762.32,1844.19,625,1675.69a960.29,960.29,0,0,1,0-1213.5c137.3-168.51,329-286.75,539.68-333a966.72,966.72,0,0,1,268.2-20.34C1937.65,141.13,2333,562.83,2333,1068.94s-395.38,927.81-900.12,960h0C1412.33,2030.29,1391.51,2031,1371,2031Zm61-15.16h0ZM1371,133.37a936.29,936.29,0,0,0-200.65,21.69C744.55,248.43,435.5,632.78,435.5,1068.94s309,820.5,734.86,913.88a940.83,940.83,0,0,0,260.86,19.78h0c490.86-31.36,875.37-441.46,875.37-933.66s-384.51-902.31-875.37-933.66C1411.21,134,1391,133.37,1371,133.37Z"/><path class="cls-3" d="M2452.91,2440H876.1a13.22,13.22,0,1,1,0-26.44H2439.69v-67.11H876.1a13.23,13.23,0,0,1,0-26.45H2452.91a13.22,13.22,0,0,1,13.22,13.23v93.55A13.22,13.22,0,0,1,2452.91,2440Z"/></g></g></svg>