<svg xmlns="http://www.w3.org/2000/svg" viewBox="0 0 2395.08 1427.89"><defs><style>.cls-1{fill:#7cbee8;}.cls-2{fill:#d3eefb;}.cls-3{fill:#ade1f9;}.cls-4{fill:#fff;}.cls-5{fill:#d0d2d3;}.cls-6{fill:#1a1a1a;}</style></defs><g id="Layer_2" data-name="Layer 2"><g id="Layer_1-2" data-name="Layer 1"><path class="cls-1" d="M752.91,992.44l-33.3,2.27,3.55,144.63c28.29.69,50.74,6.92,72.68,13.05,22.7,6.35,44.81,12.45,73.06,12l-115.44-171A9.87,9.87,0,0,1,752.91,992.44Z"/><path class="cls-1" d="M1866.26,674.57l-20,143.46c40.23-21.95,61.08-47.48,93.11-96L1875.6,615.42Z"/><path class="cls-1" d="M820.76,987.81l112.32,165.91c10.54-3.11,21.77-6.91,34-11.71a342.18,342.18,0,0,1,39.73-12.67L902.21,982.26Z"/><path class="cls-2" d="M1669.43,51,1559.82,38.21c-19.42,8.72-75.57,33.63-120.65,50.51a1232.59,1232.59,0,0,1,146,42.8A562.17,562.17,0,0,1,1669.43,51Z"/><path class="cls-3" d="M356.55,927.93c1.46,3.56,2.85,7.17,4.23,10.77,10.72,27.94,21.8,56.83,61.44,72.13,18.26,7,34.79,18.64,51,32.28L387.73,701.63,327.62,646.1l29,279.43A10.09,10.09,0,0,1,356.55,927.93Z"/><path class="cls-4" d="M1882.94,589.44l68.81,115.1a152.32,152.32,0,0,1,24-24l-60.44-117Z"/><path class="cls-4" d="M480.71,787.51,414.06,726l85.26,340.58c1.6,1.5,3.2,3,4.81,4.48,20.23,18.92,40.78,38.11,63.87,52.42L480.74,787.71A1.38,1.38,0,0,1,480.71,787.51Z"/><path class="cls-1" d="M1992,669.17c24.8-14.95,51-21.28,72.29-23.71a11.37,11.37,0,0,1,.11-1.16l47.32-238.09L1931,551Z"/><path class="cls-3" d="M507.38,812.15l84.07,323.44c23.42,9.92,49.68,14.14,80.73,8.22a257.94,257.94,0,0,1,31.35-4l-3.68-149.82Z"/><path class="cls-4" d="M1532.56,793.38l110.18,132a503.7,503.7,0,0,1,45.93-35.71l-97.1-116.35Z"/><path class="cls-2" d="M403.24,689.22,713.12,975.47,1380.29,930l-7.19-95.48a9.81,9.81,0,0,1,6.63-10l468.05-158.79,12.64-80.11a2,2,0,0,0,.08-.22,9.78,9.78,0,0,1,1-3l.24-.4a9.45,9.45,0,0,1,2.07-2.4c.05,0,.07-.11.12-.15l251.49-201.42L2040.4,94.45l-248.71-29.1c-14.7,28.87-42.27,56.71-66.15,77.29,26.6-7.94,57-16.53,74.93-19.91,8.53-1.62,17-4.13,25.27-6.56,25.6-7.55,54.6-16.11,66.64,15.24,4.93,12.84,2.75,28.32-6.14,43.59-14.3,24.58-49.69,53.89-106.14,62.42-46.61,7.05-77.89,6.81-100.73,6.63-34.57-.27-45-.35-62.26,23-3.72,5.05-9.28,13.91-16.31,25.13-45.57,72.61-152.6,243.23-351.78,350.94,31.08-7.38,59.8-12.52,81.45-11.68,13.86.45,23.08,5,27.82,13.21,6.85,11.9,0,25.43-1,27.44-79.91,131.43-272.5,123-351.58,113.29-19.84-2.44-33.94-5.07-39.8-6.25a505.67,505.67,0,0,1-94.27,25.36c-29.27,4.92-56.92,6.69-82.5,5.37-38.41-2-72.18-10.93-99.82-26.67-41-23.36-53.61-44.62-64.7-63.38-7.76-13.12-14.46-24.45-30.25-36.39-36.7-27.76-57.67-62.34-62.3-102.76-5.9-51.43,17.07-99.85,40.54-128,11.33-13.6,17.85-30.88,25.4-50.89,5.28-14,11.21-29.62,19.81-46.82L475,425.32l-21.7,57.8a9.78,9.78,0,0,1-1.93,3.16L329,620.63,403,689ZM1610.31,567.73l18-76.41,0-.09a9.12,9.12,0,0,1,.76-2.06c.08-.17.2-.31.29-.47a9.47,9.47,0,0,1,.7-1.12c.06-.08.15-.15.21-.23s.37-.39.55-.58a11.69,11.69,0,0,1,1-.95c.21-.16.42-.3.63-.44a11.14,11.14,0,0,1,1.35-.74c.14-.06.26-.15.4-.21l69.35-27.19a9.76,9.76,0,0,1,6.57-.21L1759,472.57c.19.07.34.21.52.29a9.7,9.7,0,0,1,1.55.84,9.94,9.94,0,0,1,1.66,1.21c.16.15.37.21.52.38a8.51,8.51,0,0,1,.59,1,10.93,10.93,0,0,1,.81,1L1793.34,530a9.83,9.83,0,0,1-1.54,11.49l-73.84,77h0a9.42,9.42,0,0,1-1.61,1.33,6.38,6.38,0,0,1-.57.32,8.13,8.13,0,0,1-1.25.63c-.27.11-.55.18-.83.27s-.5.18-.77.24c-.1,0-.2,0-.3,0a9.42,9.42,0,0,1-2.54.15H1710a9.87,9.87,0,0,1-3.1-.82.38.38,0,0,0-.1,0l-91-41.66A9.81,9.81,0,0,1,1610.31,567.73Z"/><path class="cls-4" d="M983.5,976.73l-58.31,4,102.33,143.91a464.77,464.77,0,0,1,57.68-7.57L984.6,978.73A10.07,10.07,0,0,1,983.5,976.73Z"/><path class="cls-1" d="M1705.36,879.07a287.79,287.79,0,0,1,55.4-26c25.79-8.78,46.64-16.63,64.18-24.53l19.69-141L1611.5,766.6Z"/><path class="cls-1" d="M1512.63,800.15l-119.38,40.5,7.36,97.68v.07a8.83,8.83,0,0,1,0,1.36,5.52,5.52,0,0,1,0,.58h0l-18.34,148c63.34-51.45,116.26-86.33,164.09-92.51,20.84-2.7,44.76-24.24,72.46-49.18,3-2.7,6.09-5.48,9.22-8.28L1512.64,800.16Z"/><polygon class="cls-3" points="1686.38 543.34 1643.96 510.64 1631.27 564.41 1697.23 594.61 1686.38 543.34"/><polygon class="cls-1" points="1716.64 591.46 1772.66 533.07 1753.41 497.66 1706 541.21 1716.64 591.46"/><polygon class="cls-2" points="1736.92 486.14 1707.59 476.79 1657.63 496.39 1694.69 524.94 1736.92 486.14"/><path class="cls-1" d="M1108.62,1115.85c38.7-1.22,76.06,1,109.68,3.11,61.27,3.77,114.39,7,141.93-12.79l19.39-156.43-373.33,25.43Z"/><path class="cls-4" d="M798.14,989.35l-22.71,1.55,114.79,170a9.84,9.84,0,0,1,1,1.87c6.85-.88,14.06-2.12,21.71-3.82L798.36,989.76C798.27,989.63,798.22,989.49,798.14,989.35Z"/><path class="cls-5" d="M1330.47,168.92c-10.16.48-23.28,4.5-29.6,10.44C1307.33,179.56,1317.36,177.73,1330.47,168.92Z"/><path class="cls-5" d="M1250,239.4a3.2,3.2,0,0,0-.51-1.39c-.2-.36-.62-1.1-2.73-1.21-6.74-.35-16.67,5.89-20,9.88C1238.53,245.65,1249.41,241.86,1250,239.4Z"/><path class="cls-5" d="M874.87,294c4.68-.52,13.72-2.44,17.52-7.23,1-1.31,2.32-3.55,1.51-7.84-.21-1.09-.4-2.13-3.11-2.27-7-.36-17.81,6.36-19.34,12C871.26,289.37,870.71,291.4,874.87,294Z"/><path class="cls-5" d="M1177.13,142.9a75.9,75.9,0,0,0,16.69-1.51c.23,0,.48-.09.71-.12,5.25-.55,13.69-3,16-6.63a3.68,3.68,0,0,0,.47-3,18.92,18.92,0,0,0-4.58-.67c-15.3-.79-35.32,6.14-36.77,10C1169.79,141.25,1171.53,142.61,1177.13,142.9Z"/><path class="cls-5" d="M973.09,327.27c25.36,1.31,65.55-22.93,66.45-23.45.31-.16,31.16-16,25.29-31.26-1.37-3.55-7.09-5.85-15.7-6.3-29.56-1.52-82.14,19-92,40.12-2.67,5.7-1.67,10.77,3.13,15.95C963.05,325.36,967.25,327,973.09,327.27Z"/><path class="cls-5" d="M1176.66,215.83c.2-.38.68-1.25-.61-3.56-.37-.67-1.24-2.23-4.88-2.42-10.64-.55-26.33,10.43-28.36,15.48a10.57,10.57,0,0,0,2.06.6C1156.63,225,1173.78,221.12,1176.66,215.83Z"/><path class="cls-5" d="M979.65,195c12.47.64,28.66-5.24,33.33-7.06a8.69,8.69,0,0,1,1.51-.42c13.57-4.68,32.31-14.19,34.73-22.25.37-1.24.49-2.85-1.5-5.33s-6.61-4.17-12.83-4.49c-22.4-1.15-57.34,13.55-65.6,27.59-2.2,3.76-1.49,5.88-.5,7.45C970.48,193.23,974.14,194.75,979.65,195Z"/><path class="cls-5" d="M1103,338.7c3.73.19,8.2-1.52,12.94-5,2.74-2,3.66-4,3.34-5.07-.25-.85-1.52-1.45-3.23-1.54a14.4,14.4,0,0,0-6.45,1.44c-10.49,4.58-12.2,6.91-12.44,7.45a2.13,2.13,0,0,0,.17.48A8.94,8.94,0,0,0,1103,338.7Z"/><path class="cls-4" d="M587.66,465.27c-16.14,19.37-32,49.42-35.95,83a6.49,6.49,0,0,1,8.45,1.75l19.6,26.82a6.54,6.54,0,1,1-10.57,7.72l-18.34-25.1a126.44,126.44,0,0,0,.69,19c3.92,34.21,21.76,63.73,52.85,87.87A47.47,47.47,0,0,1,617,640.54l.18-.15c-4.34-7.93-7.77-17.16-8.61-24.33-1.46-12.52,4.7-16.25,8.5-17.36a16,16,0,0,1,5.22-.57c15.73.81,35.36,22.5,42.92,37.18,3.72,7.24,4.51,12.61,2.35,16-3.35,5.25-10.94,7.61-22.54,7a80.37,80.37,0,0,1-10-1.17,5.17,5.17,0,0,1-1.53.13,8.15,8.15,0,0,1-3.76-1.36c-9.65,12.15-5.67,26.44-4.46,29.94,6.78,8.11,11.59,16.13,16.24,24,10.8,18.27,21,35.52,57.51,56.31,102.29,58.25,260.66-5.63,262.25-6.28l.08,0,.06,0c25.35-10,58.49-33.49,58.83-33.73a9.82,9.82,0,1,1,11.39,16c-1,.69-16.61,11.79-35.13,22.29,3.62.52,7.42,1,11.58,1.55,75.23,9.26,258.08,17.63,332.2-103.65,1.06-2.23,2-6.13,1-7.81-.81-1.38-4.3-3.07-11.55-3.37-32.55-1.27-88.08,13.74-137.08,27-19.35,5.23-37.65,10.17-54.56,14.2q-19.29,6.78-39.49,12.69a9.82,9.82,0,1,1-5.5-18.85q19.58-5.73,38.28-12.3a10.39,10.39,0,0,1,1-.36c264.55-93.28,399.47-308.33,451.77-391.69,7.54-12,13-20.7,17.15-26.34,23.19-31.45,42.73-31.3,78.22-31,22.17.18,52.55.41,97.63-6.4,49.65-7.51,80.65-33.18,92.11-52.88,5.84-10,7.54-19.51,4.78-26.68-4.85-12.63-13.47-12.08-42.75-3.45a277.17,277.17,0,0,1-27.18,7c-34.94,6.61-123.73,35.14-124.63,35.43a9.82,9.82,0,0,1-8.46-17.51c.86-.58,71.37-48.2,99.82-97a98.58,98.58,0,0,0,8.65-18.76,62.16,62.16,0,0,0,2.73-11.88c1.2-9.89-2.09-11.29-3.17-11.75-9.23-3.92-29.57,2.53-55.07,17.13-8.27,4.73-17.07,10.32-26.22,16.7-29.83,20.8-63.28,49.95-93.42,84.94,6,2.8,11.05,5.36,11.4,5.53a9.82,9.82,0,1,1-8.91,17.5c-.13-.07-13.5-6.86-22-10.06a.83.83,0,0,0-.16-.09c-1.24-.38-2.64-.87-4.37-1.51A1223.63,1223.63,0,0,0,1403.16,101c-23.77-4.79-49-9.09-75.24-12.61-136.38-18.25-301.62-14.52-445.68,62.29C770.84,210.07,709.44,261.56,672.85,306a306.17,306.17,0,0,0-24.31,33.86c-15.82,25.61-24.5,48.51-32.2,68.91C608.17,430.42,601.11,449.13,587.66,465.27Zm5.17,98.11a6.4,6.4,0,0,1-3.67.91,6.56,6.56,0,0,1-5.3-3.2l-22.42-37.83a6.55,6.55,0,0,1,11.26-6.68l22.43,37.84A6.54,6.54,0,0,1,592.83,563.38Zm691.62-380.76c4-20.29,35.36-27.55,50.47-26.77,7.84.41,12.55,3,14,7.65.92,3,.68,7.53-5.7,12.4-19.07,14.52-34.24,17-43.61,16.51-7-.36-11-2.33-11.78-2.73A6.52,6.52,0,0,1,1284.45,182.62Zm-23.56,49c2.68,4.81,2.87,9.81.54,14.1-6.16,11.34-28.53,13.67-35.24,14.12a6.77,6.77,0,0,1-.78,0,6.23,6.23,0,0,1-.74-.09c-9.74-1.63-12.61-7.68-12.06-12.8,1.29-11.78,21.84-23.91,34.79-23.24C1253.43,224,1258.22,226.85,1260.89,231.63Zm-101.85-98c5.46-7.9,19.66-12.59,32.26-14.59a86.49,86.49,0,0,1,13.56-1.14c.79,0,1.56,0,2.26.05,8.88.46,14.25,3.25,16,8.29,2.42,7.08.51,12.33-1.51,15.49-6.35,9.89-22.2,12.19-25.35,12.55a87.54,87.54,0,0,1-19.77,1.71c-9.86-.51-16.18-3.78-18.78-9.73A12.64,12.64,0,0,1,1159,133.61Zm-29.45,91.06c1.41-12.85,25.49-28.75,42.25-27.89,7,.36,12.57,3.6,15.64,9.12,4,7.1,2.56,12.72.68,16.17-7.57,13.94-37.34,16.59-43.23,17a4.93,4.93,0,0,1-.77,0,6,6,0,0,1-.74-.08C1129.4,236.63,1129.29,227.43,1129.59,224.67Zm-45.16,108.39c2-8.08,11.33-12.74,19.89-16.49,12.41-5.43,24.61-1.3,27.49,8.38,2,6.81-1.13,14.23-8.21,19.38-7.28,5.29-14.45,7.8-21.3,7.45a21.63,21.63,0,0,1-14.93-6.77C1083.65,340.26,1083.71,335.89,1084.43,333.06ZM958,176.44c11.68-19.87,52.41-35.33,77.55-34,10.3.53,17.84,3.69,22.39,9.39,5.4,6.76,5,13.13,3.8,17.28-5.39,17.91-38.47,29.41-45,31.54l-.49.13c-7.58,2.85-23.56,8.06-37.24,7.36-10-.52-17.18-4.1-21.28-10.64C953.68,191.08,953.8,183.61,958,176.44Zm-12.77,124.4c13.36-28.59,72.83-49.28,104.56-47.65,18.22.94,24.87,8.5,27.25,14.68,10.22,26.61-30,46.84-31.2,47.4-1.79,1.09-44,26.59-73.43,25.08-9.28-.48-16.61-3.55-21.78-9.12C942.23,322.17,940.32,311.38,945.24,300.84Zm-86.42-15.62c3.47-12.73,20.69-22.23,32.64-21.61,8.13.42,13.85,5.24,15.3,12.91,1.32,7-.1,13.32-4.11,18.39-8.79,11.11-26.93,12.24-29,12.33a4.56,4.56,0,0,1-.64,0,6.32,6.32,0,0,1-2.68-.73C856.66,299.37,857.73,289.24,858.82,285.22Zm-158,403.57a6.55,6.55,0,0,1,9.2-1l38.14,30.39A6.54,6.54,0,1,1,740,728.38L701.85,698A6.54,6.54,0,0,1,700.81,688.79Zm-20.75,27.93a6.54,6.54,0,0,1,9.25-.32l26.22,24.45a6.54,6.54,0,1,1-8.92,9.58L680.38,726A6.54,6.54,0,0,1,680.06,716.72Z"/><path class="cls-6" d="M2183.88,758.18a9.81,9.81,0,0,0-11.36-8c-6.4,1.12-157.78,28.43-236.65,115.94-75.67,84-93.8,99.71-161.68,140.29-33.23,19.87-88,42-146,65.46-57.2,23.12-116.34,47-156.61,69.85a9.82,9.82,0,1,0,9.69,17.08c39.13-22.18,97.67-45.84,154.28-68.73,58.73-23.73,114.21-46.16,148.75-66.81,69.38-41.48,89.58-59,166.19-144,74.29-82.44,223.94-109.48,225.45-109.75A9.8,9.8,0,0,0,2183.88,758.18Z"/><path class="cls-6" d="M615.16,1314.23a212,212,0,0,0,78.17,22.35c54.19,4.89,108-9.3,160.58-23.16q9.35-2.48,18.67-4.89c82.86-21.43,153.69-32.5,271-50.84,118-18.44,178.91-47.44,181.44-48.67a9.82,9.82,0,0,0-8.54-17.68c-.6.28-61.16,29-175.93,47-117.94,18.43-189.12,29.56-272.91,51.22q-9.37,2.43-18.76,4.92c-77.69,20.48-151.07,39.82-224.85,2.3a9.82,9.82,0,0,0-8.9,17.5Z"/><path class="cls-6" d="M177,866.51a9.82,9.82,0,1,0-10.52-16.58c-37.16,23.6-58.71,62.62-59.11,107.06-.49,53.91,29.17,105.89,79.34,139,53.77,35.53,93.43,44.28,139.36,54.4,46.78,10.32,99.81,22,181.32,66.78,35.8,19.67,74.64,26.56,100.57,28.9a241.19,241.19,0,0,0,29.88,1.05,9.82,9.82,0,0,0-.88-19.62c-.65,0-65.49,2.47-120.12-27.53-84-46.14-138.47-58.15-186.54-68.75-44-9.7-82-18.09-132.77-51.61-44.59-29.46-71-75.25-70.53-122.47C127.34,919.51,145.56,886.47,177,866.51Z"/><path class="cls-6" d="M443.85,1357.27a9.62,9.62,0,0,0,2.49.56,9.82,9.82,0,0,0,4.25-19c-37.73-13.79-73.86-24.06-112.12-34.95-47.73-13.57-101.82-28.94-170.38-54.45-84.91-31.6-98-84.47-111.9-140.44-5.33-21.5-10.84-43.74-20.61-64.59C.73,970,15.07,834.61,156,766.45c47.58-23,133.78-74.79,155.24-87.77l7,67.21a9.67,9.67,0,0,0-9.39,1.13c-2.62,2-64.51,48.65-86.75,94.84-20.69,43-38.11,120.69,3.25,146.26a10,10,0,0,0,4.27,1.43,9.82,9.82,0,0,0,6-18.13c-25-15.44-18-75,4.12-121,19.24-40,74.57-82.87,80.24-87.2l13.54,130.44a45.82,45.82,0,0,0-16.5-7.81,9.82,9.82,0,0,0-4.83,19c15.35,3.89,21.2,17.38,30.21,40.88,11.1,28.95,24.92,65,72.71,83.42,26.31,10.16,50.23,32.52,75.55,56.2,38,35.53,80.08,74.89,139.47,80.25a164,164,0,0,0,45.67-2.5c50.75-9.67,81.81-1,114.7,8.21,44.65,12.48,90.83,25.39,183.68-11,80.86-31.71,166.93-26.41,242.86-21.74,70.25,4.32,125.76,7.72,158.39-19.25l.18-.14.08-.06c60-50,122.42-97.23,173.09-103.79,26.91-3.48,52.94-26.92,83.08-54.06,34.68-31.22,77.84-70.08,135.18-89.61,107-36.44,135.71-58,192.05-144a132.59,132.59,0,0,1,30.53-32.9,9.63,9.63,0,0,0,4-1,9.73,9.73,0,0,0,4.55-5c49.42-32,107.72-24,108.48-23.93a9.81,9.81,0,1,0,2.84-19.42,167,167,0,0,0-25.07-1.24l51.77-260.52a8.54,8.54,0,0,0,.12-1.23c0-.16.05-.34.05-.5a9.31,9.31,0,0,0-.29-2.51,1.11,1.11,0,0,0,0-.19l-7.64-28.86c33.8,8,56.86,26.62,67,54.48,14.5,39.9,0,92.25-36.93,133.37a9.82,9.82,0,0,0,14.6,13.13c41.72-46.45,57.73-106.58,40.78-153.21-13.35-36.74-45.6-61.05-91-68.94l-17.59-66.44a9.83,9.83,0,0,0,3.94,1.52c78.1,11.38,132.56,40.71,161.85,87.16,39.68,62.95,22.3,139.51,13,169.5-17.55,56.54-115.61,150.6-116.6,151.54A9.82,9.82,0,0,0,2181,686.66c4.19-4,102.73-98.54,121.8-159.93,10.12-32.59,28.9-115.94-15.13-185.79-32.49-51.54-91.58-83.88-175.63-96.13a9.89,9.89,0,0,0-10.12,5.29l-17.48-66a246.09,246.09,0,0,1,89.15,6.65,9.82,9.82,0,0,0,5-19c-46.31-12.16-84.69-8.84-99.21-6.82L2057.67,83a9.82,9.82,0,0,0-8.35-7.24l-250.1-29.27a76.59,76.59,0,0,0,2.51-11.85c2.57-21.33-8.28-29.3-15-32.15C1766.8-6,1731.28,8.22,1693,34L1559.41,18.39a9.68,9.68,0,0,0-5.18.8c-56.69,25.55-119.3,51.37-151.64,61.73C1252.63,51.33,1048.05,40,873,133.35,733.78,207.58,669.54,271.87,635.29,324.48L462.86,409.42a9.75,9.75,0,0,0-4.85,5.35L435.6,474.46,307.91,614.62c-.07.07-.11.15-.17.22-.22.27-.41.54-.6.82a7.89,7.89,0,0,0-.51.77,6.59,6.59,0,0,0-.4.85c-.13.29-.27.58-.37.88a9.32,9.32,0,0,0-.23.91c-.07.31-.15.62-.19.94s0,.6,0,.91a8.85,8.85,0,0,0,0,1c0,.1,0,.19,0,.29l3.69,35.52A9.63,9.63,0,0,0,305.9,659c-1,.64-105.82,64.36-158.43,89.8-153,74-167.93,222.29-129.67,304,9,19.11,14,39.45,19.33,61,14.5,58.46,29.49,118.91,124.12,154.12,69.28,25.78,123.77,41.27,171.85,54.94C371,1333.55,406.8,1343.73,443.85,1357.27ZM504.13,1071c-1.61-1.51-3.21-3-4.81-4.48L414.06,726l66.65,61.56a1.38,1.38,0,0,0,0,.2L568,1123.43C544.91,1109.12,524.36,1089.93,504.13,1071Zm168,72.8c-31,5.92-57.31,1.7-80.73-8.22L507.38,812.15,699.85,989.94l3.68,149.82A257.94,257.94,0,0,0,672.18,1143.81Zm123.66,8.58c-21.94-6.13-44.39-12.36-72.68-13.05l-3.55-144.63,33.3-2.27a9.87,9.87,0,0,0,.55,1l115.44,171C840.65,1164.84,818.54,1158.74,795.84,1152.39Zm95.36,10.4a9.84,9.84,0,0,0-1-1.87l-114.79-170,22.71-1.55c.08.14.13.28.22.41L912.91,1159C905.26,1160.67,898.05,1161.91,891.2,1162.79ZM967.06,1142c-12.21,4.8-23.44,8.6-34,11.71L820.76,987.81l81.45-5.55,104.58,147.08A342.18,342.18,0,0,0,967.06,1142Zm60.46-17.4L925.19,980.7l58.31-4a10.07,10.07,0,0,0,1.1,2L1085.2,1117A464.77,464.77,0,0,0,1027.52,1124.61Zm332.71-18.44c-27.54,19.76-80.66,16.56-141.93,12.79-33.62-2.07-71-4.33-109.68-3.11L1006.29,975.17l373.33-25.43Zm258.54-159.5c-27.7,24.94-51.62,46.48-72.46,49.18-47.83,6.18-100.75,41.06-164.09,92.51l18.34-148h0a5.52,5.52,0,0,0,0-.58,8.83,8.83,0,0,0,0-1.36v-.07l-7.36-97.68,119.38-40.5h0L1628,938.39C1624.86,941.19,1621.77,944,1618.77,946.67Zm24-21.25-110.18-132,59-20,97.1,116.35A503.7,503.7,0,0,0,1642.74,925.42Zm182.2-96.89c-17.54,7.9-38.39,15.75-64.18,24.53a287.79,287.79,0,0,0-55.4,26L1611.5,766.6l233.13-79.1Zm21.29-10.5,20-143.46,9.34-59.15L1939.34,722C1907.31,770.55,1886.46,796.08,1846.23,818Zm105.52-113.49-68.81-115.1,32.39-25.93,60.44,117A152.32,152.32,0,0,0,1951.75,704.54ZM2064.4,644.3a11.37,11.37,0,0,0-.11,1.16c-21.34,2.43-47.49,8.76-72.29,23.71L1931,551l180.76-144.77ZM1559.82,38.21,1669.43,51a562.17,562.17,0,0,0-84.26,80.49,1232.59,1232.59,0,0,0-146-42.8C1484.25,71.84,1540.4,46.93,1559.82,38.21ZM648.54,339.84A306.17,306.17,0,0,1,672.85,306c36.59-44.42,98-95.91,209.39-155.3,144.06-76.81,309.3-80.54,445.68-62.29,26.27,3.52,51.47,7.82,75.24,12.61a1223.63,1223.63,0,0,1,177.17,49.66c1.73.64,3.13,1.13,4.37,1.51a.83.83,0,0,1,.16.09c8.48,3.2,21.85,10,22,10.06a9.82,9.82,0,0,0,8.91-17.5c-.35-.17-5.39-2.73-11.4-5.53,30.14-35,63.59-64.14,93.42-84.94,9.15-6.38,18-12,26.22-16.7,25.5-14.6,45.84-21,55.07-17.13,1.08.46,4.37,1.86,3.17,11.75a62.16,62.16,0,0,1-2.73,11.88,98.58,98.58,0,0,1-8.65,18.76c-28.45,48.83-99,96.45-99.82,97a9.82,9.82,0,0,0,8.46,17.51c.9-.29,89.69-28.82,124.63-35.43a277.17,277.17,0,0,0,27.18-7c29.28-8.63,37.9-9.18,42.75,3.45,2.76,7.17,1.06,16.64-4.78,26.68-11.46,19.7-42.46,45.37-92.11,52.88-45.08,6.81-75.46,6.58-97.63,6.4-35.49-.27-55-.42-78.22,31-4.16,5.64-9.61,14.32-17.15,26.34-52.3,83.36-187.22,298.41-451.77,391.69a10.39,10.39,0,0,0-1,.36q-18.72,6.57-38.28,12.3a9.82,9.82,0,1,0,5.5,18.85q20.19-5.91,39.49-12.69c16.91-4,35.21-9,54.56-14.2,49-13.25,104.53-28.26,137.08-27,7.25.3,10.74,2,11.55,3.37,1,1.68.06,5.58-1,7.81-74.12,121.28-257,112.91-332.2,103.65-4.16-.51-8-1-11.58-1.55,18.52-10.5,34.17-21.6,35.13-22.29a9.82,9.82,0,1,0-11.39-16c-.34.24-33.48,23.77-58.83,33.73l-.06,0-.08,0c-1.59.65-160,64.53-262.25,6.28-36.51-20.79-46.71-38-57.51-56.31-4.65-7.86-9.46-15.88-16.24-24-1.21-3.5-5.19-17.79,4.46-29.94a8.15,8.15,0,0,0,3.76,1.36,5.17,5.17,0,0,0,1.53-.13,80.37,80.37,0,0,0,10,1.17c11.6.59,19.19-1.77,22.54-7,2.16-3.39,1.37-8.76-2.35-16-7.56-14.68-27.19-36.37-42.92-37.18a16,16,0,0,0-5.22.57c-3.8,1.11-10,4.84-8.5,17.36.84,7.17,4.27,16.4,8.61,24.33l-.18.15a47.47,47.47,0,0,0-12.64,25.79c-31.09-24.14-48.93-53.66-52.85-87.87a126.44,126.44,0,0,1-.69-19l18.34,25.1a6.54,6.54,0,1,0,10.57-7.72L560.16,550a6.49,6.49,0,0,0-8.45-1.75c4-33.58,19.81-63.63,35.95-83,13.45-16.14,20.51-34.85,28.68-56.52C624,388.35,632.72,365.45,648.54,339.84ZM451.39,486.28a9.78,9.78,0,0,0,1.93-3.16l21.7-57.8L617.78,355c-8.6,17.2-14.53,32.84-19.81,46.82-7.55,20-14.07,37.29-25.4,50.89-23.47,28.15-46.44,76.57-40.54,128,4.63,40.42,25.6,75,62.3,102.76,15.79,11.94,22.49,23.27,30.25,36.39,11.09,18.76,23.67,40,64.7,63.38,27.64,15.74,61.41,24.69,99.82,26.67,25.58,1.32,53.23-.45,82.5-5.37a505.67,505.67,0,0,0,94.27-25.36c5.86,1.18,20,3.81,39.8,6.25,79.08,9.71,271.67,18.14,351.58-113.29,1.09-2,7.89-15.54,1-27.44-4.74-8.23-14-12.76-27.82-13.21-21.65-.84-50.37,4.3-81.45,11.68,199.18-107.71,306.21-278.33,351.78-350.94,7-11.22,12.59-20.08,16.31-25.13,17.25-23.39,27.69-23.31,62.26-23,22.84.18,54.12.42,100.73-6.63,56.45-8.53,91.84-37.84,106.14-62.42,8.89-15.27,11.07-30.75,6.14-43.59-12-31.35-41-22.79-66.64-15.24-8.23,2.43-16.74,4.94-25.27,6.56-17.9,3.38-48.33,12-74.93,19.91,23.88-20.58,51.45-48.42,66.15-77.29l248.71,29.1,75.07,283.6L1864,579.47s-.07.11-.12.15a9.68,9.68,0,0,0-2.07,2.4l-.24.4a9.78,9.78,0,0,0-1,3,2,2,0,0,1-.08.22l-12.64,80.11-468,158.79a9.81,9.81,0,0,0-6.63,10l7.19,95.48L713.12,975.47,403.24,689.22,403,689l-74-68.36ZM387.73,701.63l85.48,341.48c-16.2-13.64-32.73-25.23-51-32.28-39.64-15.3-50.72-44.19-61.44-72.13-1.38-3.6-2.77-7.21-4.23-10.77a10.09,10.09,0,0,0,.08-2.4l-29-279.43Z"/><path class="cls-6" d="M958.38,1379.08c-1.47.38-147.45,38.22-207.48,27.24-66-12.06-150.9-25.22-221.58-19.9-67.29,5.07-169.7-9.43-219.14-31a9.82,9.82,0,1,0-7.86,18c33.88,14.79,89.19,26.25,143.26,31.12,30.09,2.72,59.79,3.39,85.21,1.48,68.46-5.15,151.71,7.79,216.59,19.63,64.29,11.74,209.8-25.94,216-27.55a9.82,9.82,0,0,0-5-19Z"/><path class="cls-6" d="M1845.52,1086.11a9.81,9.81,0,0,0-12.76-5.46c-6.93,2.77-170.31,68.32-237.7,108-66.22,39-234.66,100.81-333.76,122.52-101.86,22.33-152.8,62.23-154.92,63.91a9.82,9.82,0,0,0,12.24,15.36c.47-.38,49.88-38.82,146.88-60.08,102.52-22.47,270.69-84.28,339.53-124.78,66.11-38.91,233.34-106,235-106.67A9.83,9.83,0,0,0,1845.52,1086.11Z"/><path class="cls-6" d="M2260.51,200.57a9.81,9.81,0,0,0,6.6,12.21c108.43,32.31,112.39,120.38,106.16,241.27a9.82,9.82,0,0,0,8.91,10.28l.39,0a9.82,9.82,0,0,0,10.31-9.3c5.36-104,11.44-221.89-120.16-261.09A9.84,9.84,0,0,0,2260.51,200.57Z"/><path class="cls-6" d="M2373.13,570.6a9.86,9.86,0,0,0-11,8.44c-.15,1.08-15,108.46-73.53,161.08a9.71,9.71,0,0,0-1.08,1.14c-88.78,110.25-184.31,142.5-185.26,142.81a8.48,8.48,0,0,0-1,.39c-31.17,14.08-95.65,63.84-98.38,66a9.82,9.82,0,0,0,12,15.53c.65-.5,64.73-50,94-63.4,8.91-3,103.68-37.25,193.41-148.37,63.44-57.65,78.64-167.88,79.26-172.56A9.82,9.82,0,0,0,2373.13,570.6Z"/><path class="cls-6" d="M1287.82,189.68c.74.4,4.81,2.37,11.78,2.73,9.37.48,24.54-2,43.61-16.51,6.38-4.87,6.62-9.43,5.7-12.4-1.44-4.67-6.15-7.24-14-7.65-15.11-.78-46.46,6.48-50.47,26.77A6.52,6.52,0,0,0,1287.82,189.68Zm42.65-20.76c-13.11,8.81-23.14,10.64-29.6,10.44C1307.19,173.42,1320.31,169.4,1330.47,168.92Z"/><path class="cls-6" d="M979,208.11c13.68.7,29.66-4.51,37.24-7.36l.49-.13c6.58-2.13,39.66-13.63,45-31.54,1.25-4.15,1.6-10.52-3.8-17.28-4.55-5.7-12.09-8.86-22.39-9.39-25.14-1.3-65.87,14.16-77.55,34-4.21,7.17-4.33,14.64-.32,21C961.79,204,969,207.59,979,208.11Zm-9.68-25c8.26-14,43.2-28.74,65.6-27.59,6.22.32,10.78,1.92,12.83,4.49s1.87,4.09,1.5,5.33c-2.42,8.06-21.16,17.57-34.73,22.25a8.69,8.69,0,0,0-1.51.42c-4.67,1.82-20.86,7.7-33.33,7.06-5.51-.28-9.17-1.8-10.86-4.51C967.8,189,967.09,186.83,969.29,183.07Z"/><path class="cls-6" d="M1176.46,156a87.54,87.54,0,0,0,19.77-1.71c3.15-.36,19-2.66,25.35-12.55,2-3.16,3.93-8.41,1.51-15.49-1.72-5-7.09-7.83-16-8.29-.7,0-1.47-.05-2.26-.05A86.49,86.49,0,0,0,1191.3,119c-12.6,2-26.8,6.69-32.26,14.59a12.64,12.64,0,0,0-1.36,12.63C1160.28,152.19,1166.6,155.46,1176.46,156Zm30-25a18.92,18.92,0,0,1,4.58.67,3.68,3.68,0,0,1-.47,3c-2.34,3.66-10.78,6.08-16,6.63-.23,0-.48.07-.71.12a75.9,75.9,0,0,1-16.69,1.51c-5.6-.29-7.34-1.65-7.45-1.9C1171.13,137.15,1191.15,130.22,1206.45,131Z"/><path class="cls-6" d="M870.37,306.51a6.32,6.32,0,0,0,2.68.73,4.56,4.56,0,0,0,.64,0c2-.09,20.17-1.22,29-12.33,4-5.07,5.43-11.43,4.11-18.39-1.45-7.67-7.17-12.49-15.3-12.91-12-.62-29.17,8.88-32.64,21.61C857.73,289.24,856.66,299.37,870.37,306.51Zm1.08-17.85c1.53-5.62,12.38-12.34,19.34-12,2.71.14,2.9,1.18,3.11,2.27.81,4.29-.48,6.53-1.51,7.84-3.8,4.79-12.84,6.71-17.52,7.23C870.71,291.4,871.26,289.37,871.45,288.66Z"/><path class="cls-6" d="M972.42,340.35c29.4,1.51,71.64-24,73.43-25.08,1.2-.56,41.42-20.79,31.2-47.4-2.38-6.18-9-13.74-27.25-14.68-31.73-1.63-91.2,19.06-104.56,47.65-4.92,10.54-3,21.33,5.4,30.39C955.81,336.8,963.14,339.87,972.42,340.35Zm-15.31-34c9.88-21.15,62.46-41.64,92-40.12,8.61.45,14.33,2.75,15.7,6.3,5.87,15.28-25,31.1-25.29,31.26-.9.52-41.09,24.76-66.45,23.45-5.84-.3-10-1.91-12.85-4.94C955.44,317.15,954.44,312.08,957.11,306.38Z"/><path class="cls-6" d="M1102.3,351.78c6.85.35,14-2.16,21.3-7.45,7.08-5.15,10.23-12.57,8.21-19.38-2.88-9.68-15.08-13.81-27.49-8.38-8.56,3.75-17.86,8.41-19.89,16.49-.72,2.83-.78,7.2,2.94,11.95A21.63,21.63,0,0,0,1102.3,351.78Zm7.27-23.21a14.4,14.4,0,0,1,6.45-1.44c1.71.09,3,.69,3.23,1.54.32,1.05-.6,3.08-3.34,5.07-4.74,3.44-9.21,5.15-12.94,5a8.94,8.94,0,0,1-5.67-2.2,2.13,2.13,0,0,1-.17-.48C1097.37,335.48,1099.08,333.15,1109.57,328.57Z"/><path class="cls-6" d="M1143.42,239a6,6,0,0,0,.74.08,4.93,4.93,0,0,0,.77,0c5.89-.39,35.66-3,43.23-17,1.88-3.45,3.29-9.07-.68-16.17-3.07-5.52-8.63-8.76-15.64-9.12-16.76-.86-40.84,15-42.25,27.89C1129.29,227.43,1129.4,236.63,1143.42,239Zm27.75-29.13c3.64.19,4.51,1.75,4.88,2.42,1.29,2.31.81,3.18.61,3.56-2.88,5.29-20,9.2-31.79,10.1a10.57,10.57,0,0,1-2.06-.6C1144.84,220.28,1160.53,209.3,1171.17,209.85Z"/><path class="cls-6" d="M1212.61,247c-.55,5.12,2.32,11.17,12.06,12.8a6.23,6.23,0,0,0,.74.09,6.77,6.77,0,0,0,.78,0c6.71-.45,29.08-2.78,35.24-14.12,2.33-4.29,2.14-9.29-.54-14.1s-7.46-7.59-13.49-7.9C1234.45,223.06,1213.9,235.19,1212.61,247Zm34.12-10.17c2.11.11,2.53.85,2.73,1.21a3.2,3.2,0,0,1,.51,1.39c-.56,2.46-11.44,6.25-23.26,7.28C1230.06,242.69,1240,236.45,1246.73,236.8Z"/><path class="cls-6" d="M572.7,516.58a6.55,6.55,0,0,0-11.26,6.68l22.42,37.83a6.56,6.56,0,0,0,5.3,3.2,6.4,6.4,0,0,0,3.67-.91,6.54,6.54,0,0,0,2.3-9Z"/><path class="cls-6" d="M701.85,698,740,728.38a6.54,6.54,0,0,0,8.15-10.24L710,687.75A6.55,6.55,0,1,0,701.85,698Z"/><path class="cls-6" d="M706.61,750.43a6.54,6.54,0,1,0,8.92-9.58L689.31,716.4a6.54,6.54,0,1,0-8.93,9.57Z"/><path class="cls-6" d="M1615.78,578.92l91,41.66a.38.38,0,0,1,.1,0,9.87,9.87,0,0,0,3.1.82h.08a10,10,0,0,0,2.54-.15c.1,0,.2,0,.3,0,.27-.06.51-.16.77-.24s.56-.16.83-.27a8.13,8.13,0,0,0,1.25-.63,6.38,6.38,0,0,0,.57-.32,9.42,9.42,0,0,0,1.61-1.33h0l73.84-77a9.83,9.83,0,0,0,1.54-11.49l-28.69-52.76a10.93,10.93,0,0,0-.81-1,8.51,8.51,0,0,0-.59-1c-.15-.17-.36-.23-.52-.38a14.34,14.34,0,0,0-3.21-2.05c-.18-.08-.33-.22-.52-.29L1710.24,457a9.76,9.76,0,0,0-6.57.21l-69.35,27.19c-.14.06-.26.15-.4.21a11.14,11.14,0,0,0-1.35.74c-.21.14-.42.28-.63.44a11.69,11.69,0,0,0-1,.95c-.18.19-.38.38-.55.58s-.15.15-.21.23a9.47,9.47,0,0,0-.7,1.12c-.09.16-.21.3-.29.47a9.12,9.12,0,0,0-.76,2.06l0,.09-18,76.41A9.81,9.81,0,0,0,1615.78,578.92Zm156.88-45.85-56,58.39L1706,541.21l47.41-43.55Zm-65.07-56.28,29.33,9.36-42.23,38.79-37.06-28.55ZM1644,510.64l42.42,32.7,10.85,51.27-66-30.2Z"/><path class="cls-6" d="M749.6,633.63s12.72-23.07,27.65-19.1,11.59,39.35-12.61,42.65C750.08,659.16,747.7,638.1,749.6,633.63Z"/><path class="cls-6" d="M641.21,523.74s11.25-23.83-.72-33.59-38.69,13.66-27.17,35.2C620.24,538.31,638.71,527.9,641.21,523.74Z"/><ellipse class="cls-4" cx="650.89" cy="639.79" rx="4.45" ry="7.53" transform="translate(-261.78 644.57) rotate(-44.81)"/></g></g></svg>